<svg id="svg" version="1.1" xmlns="http://www.w3.org/2000/svg" xmlns:xlink="http://www.w3.org/1999/xlink" width="400"
  height="144.84052532833022" viewBox="0, 0, 400,144.84052532833022">
  <path id="path0"
    d="M104.667 0.167 C 104.667 0.261,104.194 0.333,103.583 0.333 C 102.539 0.333,102.500 0.348,102.500 0.750 C 102.500 1.133,102.439 1.167,101.750 1.167 C 101.111 1.167,101.000 1.216,101.000 1.500 C 101.000 1.784,100.889 1.833,100.250 1.833 C 99.561 1.833,99.500 1.867,99.500 2.250 C 99.500 2.633,99.439 2.667,98.750 2.667 C 98.111 2.667,98.000 2.716,98.000 3.000 C 98.000 3.284,97.889 3.333,97.250 3.333 C 96.561 3.333,96.500 3.367,96.500 3.750 C 96.500 4.083,96.417 4.167,96.083 4.167 C 95.778 4.167,95.667 4.256,95.667 4.500 C 95.667 4.784,95.556 4.833,94.917 4.833 C 94.228 4.833,94.167 4.867,94.167 5.250 C 94.167 5.633,94.106 5.667,93.417 5.667 C 92.778 5.667,92.667 5.716,92.667 6.000 C 92.667 6.222,92.556 6.333,92.333 6.333 C 92.089 6.333,92.000 6.444,92.000 6.750 C 92.000 7.133,91.939 7.167,91.250 7.167 C 90.620 7.167,90.500 7.218,90.500 7.488 C 90.500 7.695,90.366 7.829,90.125 7.863 C 89.884 7.898,89.731 8.051,89.697 8.292 C 89.663 8.533,89.529 8.667,89.322 8.667 C 89.111 8.667,89.000 8.782,89.000 9.000 C 89.000 9.244,88.889 9.333,88.583 9.333 C 88.250 9.333,88.167 9.417,88.167 9.750 C 88.167 10.133,88.106 10.167,87.417 10.167 C 86.778 10.167,86.667 10.216,86.667 10.500 C 86.667 10.722,86.556 10.833,86.333 10.833 C 86.089 10.833,86.000 10.944,86.000 11.250 C 86.000 11.583,85.917 11.667,85.583 11.667 C 85.278 11.667,85.167 11.756,85.167 12.000 C 85.167 12.222,85.056 12.333,84.833 12.333 C 84.589 12.333,84.500 12.444,84.500 12.750 C 84.500 13.133,84.439 13.167,83.750 13.167 C 83.120 13.167,83.000 13.218,83.000 13.488 C 83.000 13.695,82.866 13.829,82.625 13.863 C 82.384 13.898,82.231 14.051,82.197 14.292 C 82.163 14.533,82.029 14.667,81.822 14.667 C 81.615 14.667,81.500 14.782,81.500 14.988 C 81.500 15.195,81.366 15.329,81.125 15.363 C 80.884 15.398,80.731 15.551,80.697 15.792 C 80.663 16.033,80.529 16.167,80.322 16.167 C 80.111 16.167,80.000 16.282,80.000 16.500 C 80.000 16.744,79.889 16.833,79.583 16.833 C 79.250 16.833,79.167 16.917,79.167 17.250 C 79.167 17.556,79.078 17.667,78.833 17.667 C 78.549 17.667,78.500 17.778,78.500 18.417 C 78.500 19.056,78.549 19.167,78.833 19.167 C 79.056 19.167,79.167 19.278,79.167 19.500 C 79.167 19.744,79.278 19.833,79.583 19.833 C 79.917 19.833,80.000 19.917,80.000 20.250 C 80.000 20.556,80.089 20.667,80.333 20.667 C 80.556 20.667,80.667 20.778,80.667 21.000 C 80.667 21.244,80.778 21.333,81.083 21.333 C 81.417 21.333,81.500 21.417,81.500 21.750 C 81.500 22.056,81.589 22.167,81.833 22.167 C 82.056 22.167,82.167 22.278,82.167 22.500 C 82.167 22.744,82.278 22.833,82.583 22.833 C 82.917 22.833,83.000 22.917,83.000 23.250 C 83.000 23.556,83.089 23.667,83.333 23.667 C 83.556 23.667,83.667 23.778,83.667 24.000 C 83.667 24.244,83.778 24.333,84.083 24.333 C 84.417 24.333,84.500 24.417,84.500 24.750 C 84.500 25.133,84.561 25.167,85.250 25.167 C 85.889 25.167,86.000 25.216,86.000 25.500 C 86.000 25.722,86.111 25.833,86.333 25.833 C 86.578 25.833,86.667 25.944,86.667 26.250 C 86.667 26.583,86.750 26.667,87.083 26.667 C 87.389 26.667,87.500 26.756,87.500 27.000 C 87.500 27.222,87.611 27.333,87.833 27.333 C 88.078 27.333,88.167 27.444,88.167 27.750 C 88.167 28.083,88.250 28.167,88.583 28.167 C 88.889 28.167,89.000 28.256,89.000 28.500 C 89.000 28.784,89.111 28.833,89.750 28.833 C 90.439 28.833,90.500 28.867,90.500 29.250 C 90.500 29.556,90.589 29.667,90.833 29.667 C 91.056 29.667,91.167 29.778,91.167 30.000 C 91.167 30.244,91.278 30.333,91.583 30.333 C 91.917 30.333,92.000 30.417,92.000 30.750 C 92.000 31.133,92.061 31.167,92.750 31.167 C 93.389 31.167,93.500 31.216,93.500 31.500 C 93.500 31.722,93.611 31.833,93.833 31.833 C 94.078 31.833,94.167 31.944,94.167 32.250 C 94.167 32.633,94.228 32.667,94.917 32.667 C 95.556 32.667,95.667 32.716,95.667 33.000 C 95.667 33.284,95.778 33.333,96.417 33.333 C 97.106 33.333,97.167 33.367,97.167 33.750 C 97.167 34.133,97.228 34.167,97.917 34.167 C 98.556 34.167,98.667 34.216,98.667 34.500 C 98.667 34.784,98.778 34.833,99.417 34.833 C 100.106 34.833,100.167 34.867,100.167 35.250 C 100.167 35.633,100.228 35.667,100.917 35.667 C 101.556 35.667,101.667 35.716,101.667 36.000 C 101.667 36.284,101.778 36.333,102.417 36.333 C 103.106 36.333,103.167 36.367,103.167 36.750 C 103.167 37.164,103.178 37.167,104.667 37.167 C 106.056 37.167,106.167 37.191,106.167 37.500 C 106.167 37.819,106.278 37.833,108.833 37.833 C 111.389 37.833,111.500 37.819,111.500 37.500 C 111.500 37.187,111.611 37.167,113.333 37.167 L 115.167 37.167 115.167 36.750 C 115.167 36.367,115.228 36.333,115.917 36.333 C 116.556 36.333,116.667 36.284,116.667 36.000 C 116.667 35.716,116.778 35.667,117.417 35.667 C 118.106 35.667,118.167 35.633,118.167 35.250 C 118.167 34.867,118.228 34.833,118.917 34.833 C 119.547 34.833,119.667 34.782,119.667 34.512 C 119.667 34.305,119.801 34.171,120.042 34.137 C 120.283 34.102,120.436 33.949,120.470 33.708 C 120.504 33.467,120.638 33.333,120.845 33.333 C 121.056 33.333,121.167 33.218,121.167 33.000 C 121.167 32.756,121.278 32.667,121.583 32.667 C 121.917 32.667,122.000 32.583,122.000 32.250 C 122.000 31.944,122.089 31.833,122.333 31.833 C 122.556 31.833,122.667 31.722,122.667 31.500 C 122.667 31.256,122.778 31.167,123.083 31.167 C 123.417 31.167,123.500 31.083,123.500 30.750 C 123.500 30.444,123.589 30.333,123.833 30.333 C 124.117 30.333,124.167 30.222,124.167 29.583 C 124.167 28.894,124.201 28.833,124.583 28.833 C 124.889 28.833,125.000 28.744,125.000 28.500 C 125.000 28.278,125.111 28.167,125.333 28.167 C 125.617 28.167,125.667 28.056,125.667 27.428 C 125.667 26.789,125.717 26.683,126.042 26.637 C 126.382 26.588,126.421 26.481,126.466 25.458 C 126.509 24.470,126.555 24.333,126.841 24.333 C 127.144 24.333,127.167 24.208,127.167 22.512 C 127.167 20.749,127.179 20.688,127.542 20.637 C 127.906 20.585,127.918 20.522,127.963 18.375 L 128.010 16.167 127.588 16.167 C 127.168 16.167,127.167 16.160,127.167 14.667 C 127.167 13.289,127.140 13.167,126.841 13.167 C 126.555 13.167,126.509 13.030,126.466 12.042 C 126.421 11.019,126.382 10.912,126.042 10.863 C 125.717 10.817,125.667 10.711,125.667 10.072 C 125.667 9.452,125.615 9.333,125.343 9.333 C 125.081 9.333,125.009 9.198,124.968 8.625 C 124.925 8.036,124.853 7.908,124.542 7.863 C 124.301 7.829,124.167 7.695,124.167 7.488 C 124.167 7.278,124.052 7.167,123.833 7.167 C 123.589 7.167,123.500 7.056,123.500 6.750 C 123.500 6.417,123.417 6.333,123.083 6.333 C 122.701 6.333,122.667 6.272,122.667 5.583 L 122.667 4.833 121.917 4.833 C 121.278 4.833,121.167 4.784,121.167 4.500 C 121.167 4.278,121.056 4.167,120.833 4.167 C 120.589 4.167,120.500 4.056,120.500 3.750 C 120.500 3.417,120.417 3.333,120.083 3.333 C 119.778 3.333,119.667 3.244,119.667 3.000 C 119.667 2.782,119.556 2.667,119.345 2.667 C 119.138 2.667,119.004 2.533,118.970 2.292 C 118.926 1.980,118.797 1.908,118.208 1.865 C 117.636 1.824,117.500 1.752,117.500 1.490 C 117.500 1.219,117.382 1.167,116.762 1.167 C 116.123 1.167,116.016 1.116,115.970 0.792 C 115.920 0.440,115.827 0.414,114.458 0.369 C 113.656 0.342,113.000 0.248,113.000 0.160 C 113.000 0.062,111.387 0.000,108.833 0.000 C 106.167 0.000,104.667 0.060,104.667 0.167 M293.944 3.444 C 293.883 3.506,293.833 3.693,293.833 3.861 C 293.833 4.112,293.699 4.167,293.083 4.167 L 292.333 4.167 292.333 12.043 L 292.333 19.919 291.583 19.859 C 290.979 19.811,290.833 19.738,290.833 19.483 C 290.833 19.202,290.702 19.167,289.667 19.167 C 288.615 19.167,288.500 19.134,288.500 18.837 C 288.500 18.140,281.962 18.096,281.863 18.792 C 281.813 19.147,281.736 19.167,280.389 19.167 C 279.134 19.167,278.959 19.203,278.886 19.483 C 278.827 19.710,278.594 19.831,278.068 19.910 C 277.490 19.997,277.333 20.089,277.333 20.344 C 277.333 20.577,277.218 20.667,276.917 20.667 C 276.611 20.667,276.500 20.756,276.500 21.000 C 276.500 21.222,276.389 21.333,276.167 21.333 C 275.922 21.333,275.833 21.444,275.833 21.750 C 275.833 22.083,275.750 22.167,275.417 22.167 C 275.111 22.167,275.000 22.256,275.000 22.500 C 275.000 22.722,274.889 22.833,274.667 22.833 C 274.422 22.833,274.333 22.944,274.333 23.250 C 274.333 23.583,274.250 23.667,273.917 23.667 C 273.583 23.667,273.500 23.750,273.500 24.083 C 273.500 24.389,273.411 24.500,273.167 24.500 C 272.891 24.500,272.833 24.611,272.833 25.140 C 272.833 25.661,272.756 25.815,272.417 25.970 C 272.073 26.126,272.000 26.277,272.000 26.830 C 272.000 27.389,271.945 27.500,271.667 27.500 C 271.360 27.500,271.333 27.611,271.333 28.899 C 271.333 30.251,271.320 30.301,270.917 30.402 L 270.500 30.506 270.500 37.264 C 270.500 44.037,270.550 44.667,271.089 44.667 C 271.279 44.667,271.333 44.910,271.333 45.750 C 271.333 46.722,271.368 46.833,271.667 46.833 C 271.951 46.833,272.000 46.944,272.000 47.583 C 272.000 48.272,272.034 48.333,272.417 48.333 C 272.799 48.333,272.833 48.394,272.833 49.083 C 272.833 49.722,272.883 49.833,273.167 49.833 C 273.451 49.833,273.500 49.944,273.500 50.583 C 273.500 51.272,273.534 51.333,273.917 51.333 C 274.250 51.333,274.333 51.417,274.333 51.750 C 274.333 52.056,274.422 52.167,274.667 52.167 C 274.889 52.167,275.000 52.278,275.000 52.500 C 275.000 52.744,275.111 52.833,275.417 52.833 C 275.750 52.833,275.833 52.917,275.833 53.250 C 275.833 53.547,275.924 53.667,276.147 53.667 C 276.321 53.667,276.500 53.816,276.548 54.000 C 276.617 54.264,276.776 54.333,277.306 54.333 C 277.875 54.333,277.985 54.390,278.030 54.708 C 278.074 55.018,278.203 55.092,278.775 55.134 C 279.294 55.172,279.487 55.265,279.551 55.509 C 279.685 56.023,287.833 56.015,287.833 55.500 C 287.833 55.201,287.944 55.167,288.917 55.167 C 289.961 55.167,290.000 55.152,290.000 54.750 C 290.000 54.417,290.083 54.333,290.417 54.333 C 290.718 54.333,290.833 54.244,290.833 54.010 C 290.833 53.757,290.969 53.676,291.458 53.635 C 291.918 53.597,292.127 53.484,292.248 53.208 C 292.338 53.002,292.539 52.833,292.695 52.833 C 292.860 52.833,292.999 52.988,293.030 53.208 C 293.064 53.449,293.217 53.602,293.458 53.637 C 293.783 53.683,293.833 53.789,293.833 54.428 C 293.833 55.047,293.886 55.167,294.155 55.167 C 294.333 55.167,294.525 55.317,294.583 55.500 C 294.747 56.017,299.000 56.017,299.000 55.500 C 299.000 55.191,299.111 55.167,300.500 55.167 C 301.989 55.167,302.000 55.164,302.000 54.750 C 302.000 54.417,302.083 54.333,302.417 54.333 L 302.833 54.333 302.833 52.185 L 302.833 50.036 302.417 49.932 L 302.000 49.827 302.000 26.997 L 302.000 4.167 301.250 4.167 C 300.561 4.167,300.500 4.133,300.500 3.750 L 300.500 3.333 297.278 3.333 C 295.506 3.333,294.006 3.383,293.944 3.444 M164.000 7.905 C 164.000 8.544,163.949 8.651,163.625 8.697 L 163.250 8.750 163.250 31.500 L 163.250 54.250 163.625 54.303 C 163.896 54.342,164.000 54.468,164.000 54.762 C 164.000 55.083,164.087 55.167,164.417 55.167 C 164.722 55.167,164.833 55.256,164.833 55.500 C 164.833 55.823,164.944 55.833,168.500 55.833 C 172.056 55.833,172.167 55.823,172.167 55.500 C 172.167 55.256,172.278 55.167,172.583 55.167 C 172.917 55.167,173.000 55.083,173.000 54.750 C 173.000 54.444,173.089 54.333,173.333 54.333 C 173.663 54.333,173.667 54.222,173.667 45.333 L 173.667 36.333 176.750 36.333 L 179.833 36.333 179.833 36.750 C 179.833 37.124,179.901 37.167,180.489 37.167 C 180.998 37.167,181.168 37.241,181.250 37.500 C 181.308 37.683,181.501 37.833,181.678 37.833 C 181.910 37.833,182.000 37.949,182.000 38.250 C 182.000 38.547,182.090 38.667,182.314 38.667 C 182.488 38.667,182.667 38.816,182.715 39.000 C 182.767 39.199,182.942 39.333,183.151 39.333 C 183.454 39.333,183.500 39.433,183.500 40.083 C 183.500 40.707,183.553 40.833,183.814 40.833 C 184.078 40.833,184.147 41.009,184.246 41.936 C 184.341 42.824,184.426 43.055,184.682 43.122 C 184.934 43.188,185.000 43.357,185.000 43.936 C 185.000 44.540,185.054 44.667,185.314 44.667 C 185.577 44.667,185.647 44.841,185.744 45.750 C 185.842 46.667,185.909 46.833,186.180 46.833 C 186.448 46.833,186.500 46.955,186.500 47.583 C 186.500 48.207,186.553 48.333,186.814 48.333 C 187.078 48.333,187.147 48.509,187.246 49.436 C 187.341 50.324,187.426 50.555,187.682 50.622 C 187.934 50.688,188.000 50.857,188.000 51.436 C 188.000 52.045,188.053 52.167,188.320 52.167 C 188.591 52.167,188.658 52.333,188.756 53.250 C 188.853 54.159,188.923 54.333,189.186 54.333 C 189.410 54.333,189.500 54.453,189.500 54.750 C 189.500 55.133,189.561 55.167,190.250 55.167 C 190.889 55.167,191.000 55.216,191.000 55.500 C 191.000 55.823,191.111 55.833,194.750 55.833 C 198.389 55.833,198.500 55.823,198.500 55.500 C 198.500 55.236,198.612 55.166,199.042 55.164 C 199.943 55.160,200.020 55.027,199.966 53.569 C 199.920 52.345,199.890 52.246,199.542 52.197 C 199.217 52.151,199.167 52.044,199.167 51.405 C 199.167 50.778,199.117 50.667,198.833 50.667 C 198.535 50.667,198.500 50.556,198.500 49.595 C 198.500 48.610,198.469 48.519,198.125 48.470 C 197.811 48.425,197.741 48.298,197.698 47.690 C 197.659 47.144,197.567 46.943,197.330 46.881 C 197.072 46.813,197.006 46.615,196.966 45.774 C 196.922 44.857,196.878 44.744,196.542 44.697 C 196.217 44.651,196.167 44.544,196.167 43.905 C 196.167 43.284,196.115 43.167,195.841 43.167 C 195.559 43.167,195.509 43.030,195.466 42.125 C 195.422 41.189,195.378 41.078,195.042 41.030 C 194.716 40.984,194.667 40.878,194.667 40.223 C 194.667 39.615,194.604 39.452,194.341 39.384 C 194.069 39.313,194.007 39.127,193.966 38.274 C 193.922 37.357,193.878 37.244,193.542 37.197 C 193.217 37.151,193.167 37.044,193.167 36.405 C 193.167 35.785,193.115 35.667,192.843 35.667 C 192.581 35.667,192.509 35.531,192.468 34.958 C 192.425 34.369,192.353 34.241,192.042 34.197 C 191.770 34.158,191.667 34.032,191.667 33.738 C 191.667 33.449,191.575 33.333,191.343 33.333 C 191.090 33.333,191.009 33.198,190.968 32.708 C 190.920 32.120,190.875 32.075,190.208 31.935 C 189.446 31.775,189.149 31.167,189.833 31.167 C 190.078 31.167,190.167 31.056,190.167 30.750 C 190.167 30.367,190.228 30.333,190.917 30.333 C 191.556 30.333,191.667 30.284,191.667 30.000 C 191.667 29.756,191.778 29.667,192.083 29.667 C 192.417 29.667,192.500 29.583,192.500 29.250 C 192.500 28.944,192.589 28.833,192.833 28.833 C 193.056 28.833,193.167 28.722,193.167 28.500 C 193.167 28.256,193.278 28.167,193.583 28.167 C 193.917 28.167,194.000 28.083,194.000 27.750 C 194.000 27.444,194.089 27.333,194.333 27.333 C 194.617 27.333,194.667 27.222,194.667 26.583 C 194.667 25.894,194.701 25.833,195.083 25.833 C 195.466 25.833,195.500 25.772,195.500 25.083 C 195.500 24.444,195.549 24.333,195.833 24.333 C 196.347 24.333,196.357 15.589,195.844 15.454 C 195.598 15.390,195.508 15.196,195.469 14.643 C 195.425 14.036,195.355 13.908,195.042 13.863 C 194.717 13.817,194.667 13.711,194.667 13.072 C 194.667 12.444,194.617 12.333,194.333 12.333 C 194.111 12.333,194.000 12.222,194.000 12.000 C 194.000 11.756,193.889 11.667,193.583 11.667 C 193.250 11.667,193.167 11.583,193.167 11.250 C 193.167 10.944,193.078 10.833,192.833 10.833 C 192.611 10.833,192.500 10.722,192.500 10.500 C 192.500 10.256,192.389 10.167,192.083 10.167 C 191.750 10.167,191.667 10.083,191.667 9.750 C 191.667 9.367,191.606 9.333,190.917 9.333 C 190.278 9.333,190.167 9.284,190.167 9.000 C 190.167 8.717,190.056 8.667,189.428 8.667 C 188.789 8.667,188.683 8.616,188.637 8.292 C 188.587 7.940,188.493 7.914,187.125 7.869 C 185.804 7.825,185.667 7.790,185.667 7.494 C 185.667 7.172,185.484 7.167,174.833 7.167 L 164.000 7.167 164.000 7.905 M111.500 12.000 C 111.500 12.284,111.611 12.333,112.250 12.333 C 112.939 12.333,113.000 12.367,113.000 12.750 C 113.000 13.056,113.089 13.167,113.333 13.167 C 113.556 13.167,113.667 13.278,113.667 13.500 C 113.667 13.744,113.778 13.833,114.083 13.833 C 114.466 13.833,114.500 13.894,114.500 14.583 C 114.500 15.222,114.549 15.333,114.833 15.333 C 115.117 15.333,115.167 15.444,115.167 16.083 C 115.167 16.772,115.201 16.833,115.583 16.833 L 116.000 16.833 116.000 18.750 L 116.000 20.667 115.583 20.667 C 115.201 20.667,115.167 20.728,115.167 21.417 C 115.167 22.056,115.117 22.167,114.833 22.167 C 114.615 22.167,114.500 22.278,114.500 22.488 C 114.500 22.695,114.366 22.829,114.125 22.863 C 113.884 22.898,113.731 23.051,113.697 23.292 C 113.663 23.533,113.529 23.667,113.322 23.667 C 113.115 23.667,113.000 23.782,113.000 23.988 C 113.000 24.195,112.866 24.329,112.625 24.363 C 112.384 24.398,112.231 24.551,112.197 24.792 C 112.148 25.136,112.056 25.167,111.072 25.167 C 110.111 25.167,110.000 25.201,110.000 25.500 C 110.000 25.802,109.889 25.833,108.833 25.833 C 107.778 25.833,107.667 25.802,107.667 25.500 C 107.667 25.201,107.556 25.167,106.595 25.167 C 105.610 25.167,105.519 25.136,105.470 24.792 C 105.436 24.551,105.283 24.398,105.042 24.363 C 104.801 24.329,104.667 24.195,104.667 23.988 C 104.667 23.719,104.547 23.667,103.928 23.667 C 103.289 23.667,103.183 23.616,103.137 23.292 C 103.092 22.980,102.964 22.908,102.375 22.865 C 101.802 22.824,101.667 22.752,101.667 22.490 C 101.667 22.282,101.552 22.167,101.345 22.167 C 101.138 22.167,101.004 22.033,100.970 21.792 C 100.926 21.480,100.797 21.408,100.208 21.365 C 99.636 21.324,99.500 21.252,99.500 20.990 C 99.500 20.759,99.385 20.667,99.095 20.667 C 98.802 20.667,98.675 20.563,98.637 20.292 C 98.592 19.980,98.464 19.908,97.875 19.865 C 97.302 19.824,97.167 19.752,97.167 19.490 C 97.167 19.278,97.052 19.167,96.833 19.167 C 96.589 19.167,96.500 19.056,96.500 18.750 C 96.500 18.444,96.589 18.333,96.833 18.333 C 97.052 18.333,97.167 18.222,97.167 18.012 C 97.167 17.805,97.301 17.671,97.542 17.637 C 97.783 17.602,97.936 17.449,97.970 17.208 C 98.015 16.890,98.125 16.833,98.694 16.833 C 99.224 16.833,99.383 16.764,99.452 16.500 C 99.500 16.316,99.679 16.167,99.853 16.167 C 100.076 16.167,100.167 16.047,100.167 15.750 C 100.167 15.417,100.250 15.333,100.583 15.333 C 100.885 15.333,101.000 15.244,101.000 15.010 C 101.000 14.748,101.136 14.676,101.708 14.635 C 102.297 14.592,102.426 14.520,102.470 14.208 C 102.515 13.890,102.625 13.833,103.194 13.833 C 103.724 13.833,103.883 13.764,103.952 13.500 C 104.000 13.316,104.179 13.167,104.353 13.167 C 104.576 13.167,104.667 13.047,104.667 12.750 C 104.667 12.367,104.728 12.333,105.417 12.333 C 106.056 12.333,106.167 12.284,106.167 12.000 C 106.167 11.681,106.278 11.667,108.833 11.667 C 111.389 11.667,111.500 11.681,111.500 12.000 M182.715 16.500 C 182.767 16.699,182.942 16.833,183.151 16.833 C 183.388 16.833,183.500 16.940,183.500 17.163 C 183.500 17.377,183.648 17.531,183.917 17.598 C 184.177 17.664,184.333 17.821,184.333 18.018 C 184.333 18.222,184.451 18.333,184.667 18.333 C 184.894 18.333,185.000 18.444,185.000 18.682 C 185.000 18.891,185.134 19.066,185.333 19.118 C 185.646 19.200,185.667 19.346,185.667 21.436 C 185.667 23.556,185.650 23.667,185.333 23.667 C 185.089 23.667,185.000 23.778,185.000 24.083 C 185.000 24.389,184.911 24.500,184.667 24.500 C 184.448 24.500,184.333 24.611,184.333 24.822 C 184.333 25.029,184.199 25.163,183.958 25.197 C 183.717 25.231,183.564 25.384,183.530 25.625 C 183.496 25.866,183.362 26.000,183.155 26.000 C 182.944 26.000,182.833 26.115,182.833 26.333 C 182.833 26.617,182.722 26.667,182.083 26.667 C 181.444 26.667,181.333 26.716,181.333 27.000 C 181.333 27.324,181.222 27.333,177.500 27.333 L 173.667 27.333 173.667 21.750 L 173.667 16.167 178.147 16.167 C 182.488 16.167,182.631 16.177,182.715 16.500 M212.944 18.444 C 212.883 18.506,212.833 18.693,212.833 18.861 C 212.833 19.135,212.677 19.167,211.333 19.167 C 209.944 19.167,209.833 19.191,209.833 19.500 C 209.833 19.783,209.722 19.833,209.094 19.833 C 208.175 19.833,207.500 20.079,207.500 20.413 C 207.500 20.556,207.354 20.667,207.167 20.667 C 206.944 20.667,206.833 20.778,206.833 21.000 C 206.833 21.234,206.721 21.334,206.458 21.336 C 205.753 21.340,205.333 21.533,205.333 21.853 C 205.333 22.076,205.214 22.167,204.917 22.167 C 204.620 22.167,204.500 22.257,204.500 22.481 C 204.500 22.654,204.351 22.833,204.167 22.882 C 203.972 22.933,203.833 23.109,203.833 23.306 C 203.833 23.529,203.706 23.662,203.458 23.697 C 203.147 23.741,203.075 23.869,203.032 24.458 C 202.991 25.031,202.919 25.167,202.657 25.167 C 202.384 25.167,202.333 25.285,202.333 25.917 C 202.333 26.606,202.299 26.667,201.917 26.667 C 201.534 26.667,201.500 26.728,201.500 27.417 C 201.500 28.056,201.451 28.167,201.167 28.167 C 200.858 28.167,200.833 28.278,200.833 29.667 C 200.833 31.156,200.830 31.167,200.417 31.167 L 200.000 31.167 200.000 37.167 L 200.000 43.167 200.417 43.167 C 200.830 43.167,200.833 43.178,200.833 44.667 C 200.833 46.043,200.860 46.167,201.159 46.167 C 201.441 46.167,201.491 46.303,201.534 47.208 C 201.578 48.144,201.622 48.255,201.958 48.303 C 202.283 48.349,202.333 48.456,202.333 49.095 C 202.333 49.722,202.383 49.833,202.667 49.833 C 202.911 49.833,203.000 49.944,203.000 50.250 C 203.000 50.583,203.083 50.667,203.417 50.667 C 203.722 50.667,203.833 50.756,203.833 51.000 C 203.833 51.222,203.944 51.333,204.167 51.333 C 204.411 51.333,204.500 51.444,204.500 51.750 C 204.500 52.083,204.583 52.167,204.917 52.167 C 205.222 52.167,205.333 52.256,205.333 52.500 C 205.333 52.722,205.444 52.833,205.667 52.833 C 205.911 52.833,206.000 52.944,206.000 53.250 C 206.000 53.633,206.061 53.667,206.750 53.667 C 207.389 53.667,207.500 53.716,207.500 54.000 C 207.500 54.284,207.611 54.333,208.250 54.333 C 208.939 54.333,209.000 54.367,209.000 54.750 C 209.000 55.155,209.033 55.167,210.167 55.167 C 211.222 55.167,211.333 55.198,211.333 55.500 C 211.333 55.827,211.444 55.833,216.917 55.833 C 222.389 55.833,222.500 55.827,222.500 55.500 C 222.500 55.201,222.611 55.167,223.572 55.167 C 224.556 55.167,224.648 55.136,224.697 54.792 C 224.741 54.482,224.870 54.408,225.441 54.366 C 225.961 54.328,226.153 54.235,226.217 53.991 C 226.267 53.800,226.445 53.667,226.651 53.667 C 226.912 53.667,227.000 53.562,227.000 53.250 C 227.000 52.873,227.066 52.833,227.682 52.833 C 228.213 52.833,228.383 52.763,228.448 52.515 C 228.493 52.341,228.666 52.162,228.831 52.119 C 229.031 52.067,229.169 51.812,229.247 51.354 C 229.335 50.829,229.438 50.667,229.681 50.667 C 229.908 50.667,230.000 50.549,230.000 50.262 C 230.000 49.968,230.104 49.842,230.375 49.803 C 230.687 49.759,230.759 49.631,230.801 49.042 C 230.843 48.469,230.915 48.333,231.176 48.333 C 231.448 48.333,231.500 48.215,231.500 47.595 C 231.500 46.956,231.551 46.849,231.875 46.803 C 232.212 46.755,232.255 46.644,232.300 45.708 C 232.343 44.803,232.392 44.667,232.675 44.667 C 233.192 44.667,233.184 30.517,232.667 30.382 C 232.387 30.308,232.333 30.154,232.333 29.418 C 232.333 28.077,232.177 27.500,231.813 27.500 C 231.554 27.500,231.500 27.372,231.500 26.761 C 231.500 26.179,231.432 26.001,231.180 25.921 C 230.966 25.853,230.823 25.602,230.749 25.160 C 230.664 24.660,230.560 24.500,230.319 24.500 C 230.090 24.500,230.000 24.383,230.000 24.083 C 230.000 23.783,229.910 23.667,229.678 23.667 C 229.471 23.667,229.337 23.533,229.303 23.292 C 229.269 23.051,229.116 22.898,228.875 22.863 C 228.634 22.829,228.500 22.695,228.500 22.488 C 228.500 22.282,228.385 22.167,228.178 22.167 C 227.971 22.167,227.837 22.033,227.803 21.792 C 227.770 21.557,227.616 21.398,227.392 21.366 C 227.195 21.338,226.996 21.169,226.949 20.991 C 226.883 20.737,226.718 20.667,226.194 20.667 C 225.625 20.667,225.515 20.610,225.470 20.292 C 225.426 19.982,225.297 19.908,224.725 19.866 C 224.206 19.828,224.013 19.735,223.949 19.491 C 223.874 19.201,223.712 19.167,222.432 19.167 C 221.141 19.167,221.000 19.136,221.000 18.853 C 221.000 18.668,220.846 18.497,220.625 18.438 C 220.111 18.301,213.083 18.306,212.944 18.444 M252.966 18.445 C 252.810 18.487,252.636 18.667,252.580 18.844 C 252.494 19.116,252.320 19.167,251.473 19.167 C 250.627 19.167,250.456 19.216,250.386 19.483 C 250.327 19.710,250.094 19.831,249.568 19.910 C 248.990 19.997,248.833 20.089,248.833 20.344 C 248.833 20.577,248.718 20.667,248.417 20.667 C 248.121 20.667,248.000 20.757,248.000 20.979 C 248.000 21.215,247.834 21.317,247.317 21.400 C 246.831 21.478,246.608 21.605,246.547 21.838 C 246.370 22.514,245.834 22.229,245.831 21.458 C 245.828 20.462,245.686 20.044,245.318 19.948 C 245.133 19.899,245.000 19.719,245.000 19.516 C 245.000 19.176,244.927 19.167,242.417 19.167 C 239.944 19.167,239.833 19.181,239.833 19.500 C 239.833 19.803,239.722 19.833,238.597 19.833 C 237.153 19.833,236.833 19.925,236.833 20.340 C 236.833 20.528,236.691 20.664,236.458 20.697 C 236.105 20.747,236.083 20.828,236.083 22.083 C 236.083 23.306,236.114 23.430,236.458 23.581 L 236.833 23.746 236.833 39.040 C 236.833 54.222,236.836 54.333,237.167 54.333 C 237.411 54.333,237.500 54.444,237.500 54.750 C 237.500 55.083,237.583 55.167,237.917 55.167 C 238.222 55.167,238.333 55.256,238.333 55.500 C 238.333 55.822,238.444 55.833,241.667 55.833 C 244.889 55.833,245.000 55.822,245.000 55.500 C 245.000 55.216,245.111 55.167,245.750 55.167 L 246.500 55.167 246.500 54.428 C 246.500 53.789,246.551 53.683,246.875 53.637 L 247.250 53.583 247.293 41.977 C 247.335 30.543,247.340 30.370,247.668 30.285 C 247.931 30.216,248.000 30.057,248.000 29.516 L 248.000 28.833 248.682 28.833 C 249.218 28.833,249.383 28.764,249.449 28.509 C 249.496 28.331,249.695 28.162,249.892 28.134 C 250.116 28.102,250.270 27.943,250.303 27.708 C 250.352 27.367,250.446 27.333,251.361 27.333 C 252.224 27.333,252.377 27.287,252.452 27.000 C 252.508 26.784,252.679 26.667,252.936 26.667 C 253.222 26.667,253.333 26.760,253.333 27.000 C 253.333 27.299,253.444 27.333,254.405 27.333 C 255.390 27.333,255.481 27.364,255.530 27.708 C 255.564 27.949,255.717 28.102,255.958 28.137 C 256.273 28.181,256.333 28.293,256.333 28.834 C 256.333 29.331,256.409 29.502,256.667 29.583 C 256.996 29.688,257.000 29.836,257.000 42.011 L 257.000 54.333 257.417 54.333 C 257.750 54.333,257.833 54.417,257.833 54.750 C 257.833 55.047,257.924 55.167,258.147 55.167 C 258.321 55.167,258.500 55.316,258.548 55.500 C 258.682 56.013,265.333 56.022,265.333 55.510 C 265.333 55.248,265.469 55.176,266.042 55.135 L 266.750 55.083 266.750 40.167 L 266.750 25.250 266.375 25.197 C 266.031 25.148,266.000 25.056,266.000 24.072 C 266.000 23.111,265.965 23.000,265.667 23.000 C 265.422 23.000,265.333 22.889,265.333 22.583 C 265.333 22.250,265.250 22.167,264.917 22.167 C 264.583 22.167,264.500 22.083,264.500 21.750 C 264.500 21.444,264.411 21.333,264.167 21.333 C 263.944 21.333,263.833 21.222,263.833 21.000 C 263.833 20.756,263.722 20.667,263.417 20.667 C 263.083 20.667,263.000 20.583,263.000 20.250 C 263.000 19.867,262.939 19.833,262.250 19.833 C 261.611 19.833,261.500 19.784,261.500 19.500 C 261.500 19.201,261.389 19.167,260.428 19.167 C 259.444 19.167,259.352 19.136,259.303 18.792 C 259.252 18.429,254.075 18.146,252.966 18.445 M318.778 18.444 C 318.717 18.506,318.667 18.693,318.667 18.861 C 318.667 19.135,318.510 19.167,317.167 19.167 C 315.778 19.167,315.667 19.191,315.667 19.500 C 315.667 19.784,315.556 19.833,314.920 19.833 C 314.262 19.833,314.161 19.883,314.068 20.250 C 313.980 20.602,313.867 20.667,313.335 20.667 C 312.846 20.667,312.686 20.741,312.618 21.000 C 312.566 21.199,312.391 21.333,312.182 21.333 C 311.921 21.333,311.833 21.438,311.833 21.750 C 311.833 22.125,311.767 22.167,311.163 22.167 C 310.600 22.167,310.466 22.234,310.333 22.583 C 310.246 22.813,310.067 23.000,309.935 23.000 C 309.787 23.000,309.654 23.247,309.586 23.650 C 309.511 24.096,309.375 24.327,309.155 24.385 C 308.966 24.434,308.833 24.613,308.833 24.818 C 308.833 25.052,308.727 25.167,308.510 25.167 C 308.255 25.167,308.163 25.324,308.075 25.917 C 307.987 26.501,307.893 26.667,307.648 26.667 C 307.373 26.667,307.333 26.799,307.333 27.710 C 307.333 28.633,307.290 28.773,306.958 28.919 C 306.608 29.073,306.580 29.199,306.536 30.875 C 306.492 32.529,306.464 32.667,306.161 32.667 C 305.843 32.667,305.833 32.806,305.833 37.500 C 305.833 42.190,305.843 42.333,306.160 42.333 C 306.456 42.333,306.492 42.470,306.535 43.792 C 306.580 45.160,306.606 45.253,306.958 45.303 C 307.306 45.353,307.333 45.441,307.333 46.512 C 307.333 47.556,307.365 47.667,307.667 47.667 C 307.924 47.667,308.000 47.778,308.000 48.153 C 308.000 48.856,308.159 49.167,308.518 49.167 C 308.775 49.167,308.833 49.290,308.833 49.830 C 308.833 50.399,308.893 50.509,309.250 50.598 C 309.511 50.664,309.667 50.821,309.667 51.018 C 309.667 51.222,309.784 51.333,310.000 51.333 C 310.244 51.333,310.333 51.444,310.333 51.750 C 310.333 52.083,310.417 52.167,310.750 52.167 C 311.056 52.167,311.167 52.256,311.167 52.500 C 311.167 52.776,311.278 52.833,311.815 52.833 C 312.368 52.833,312.479 52.895,312.568 53.250 C 312.636 53.519,312.790 53.667,313.003 53.667 C 313.222 53.667,313.333 53.779,313.333 54.000 C 313.333 54.283,313.444 54.333,314.072 54.333 C 314.711 54.333,314.817 54.384,314.863 54.708 C 314.913 55.060,315.007 55.086,316.375 55.131 C 317.696 55.175,317.833 55.210,317.833 55.506 C 317.833 56.025,329.650 56.018,329.785 55.500 C 329.861 55.211,330.012 55.167,330.936 55.167 C 331.960 55.167,332.000 55.151,332.000 54.750 C 332.000 54.345,332.033 54.333,333.167 54.333 C 334.222 54.333,334.333 54.302,334.333 54.000 C 334.333 53.778,334.444 53.667,334.667 53.667 C 334.911 53.667,335.000 53.556,335.000 53.250 C 335.000 52.869,335.062 52.833,335.731 52.833 L 336.461 52.833 336.530 51.750 C 336.656 49.768,336.507 48.500,336.147 48.500 C 335.924 48.500,335.833 48.380,335.833 48.083 C 335.833 47.750,335.750 47.667,335.417 47.667 C 335.040 47.667,335.000 47.601,335.000 46.984 C 335.000 46.453,334.930 46.284,334.682 46.219 C 334.507 46.173,334.330 46.004,334.288 45.843 C 334.125 45.221,331.538 45.234,331.375 45.858 C 331.314 46.093,331.137 46.167,330.632 46.167 C 330.109 46.167,329.950 46.237,329.882 46.500 C 329.817 46.747,329.654 46.833,329.251 46.833 C 328.235 46.833,327.667 47.020,327.667 47.354 C 327.667 47.841,320.917 47.839,320.790 47.351 C 320.733 47.134,320.494 47.000,320.020 46.920 C 319.495 46.831,319.333 46.729,319.333 46.485 C 319.333 46.257,319.216 46.167,318.917 46.167 C 318.611 46.167,318.500 46.078,318.500 45.833 C 318.500 45.611,318.389 45.500,318.167 45.500 C 317.922 45.500,317.833 45.389,317.833 45.083 C 317.833 44.750,317.750 44.667,317.417 44.667 C 317.034 44.667,317.000 44.606,317.000 43.917 C 317.000 43.278,316.951 43.167,316.667 43.167 C 316.365 43.167,316.333 43.056,316.333 42.000 L 316.333 40.833 325.667 40.833 C 334.797 40.833,335.000 40.826,335.000 40.510 C 335.000 40.248,335.136 40.176,335.707 40.135 C 336.265 40.094,336.424 40.013,336.463 39.750 C 336.598 38.845,336.687 38.667,337.003 38.667 C 337.244 38.667,337.333 38.554,337.333 38.250 C 337.333 37.944,337.422 37.833,337.667 37.833 C 337.974 37.833,338.000 37.722,338.000 36.401 C 338.000 35.109,337.967 34.960,337.667 34.882 C 337.350 34.799,337.333 34.654,337.333 31.965 C 337.333 29.321,337.312 29.130,337.015 29.052 C 336.646 28.956,336.505 28.538,336.502 27.526 C 336.500 26.950,336.434 26.785,336.175 26.717 C 335.931 26.653,335.838 26.461,335.800 25.941 C 335.759 25.370,335.685 25.241,335.375 25.197 C 335.057 25.152,335.000 25.041,335.000 24.473 C 335.000 23.949,334.929 23.784,334.676 23.717 C 334.498 23.671,334.329 23.472,334.301 23.275 C 334.269 23.051,334.110 22.897,333.875 22.863 C 333.634 22.829,333.500 22.695,333.500 22.488 C 333.500 22.282,333.385 22.167,333.178 22.167 C 332.971 22.167,332.837 22.033,332.803 21.792 C 332.769 21.551,332.616 21.398,332.375 21.363 C 332.134 21.329,332.000 21.195,332.000 20.988 C 332.000 20.718,331.880 20.667,331.250 20.667 C 330.561 20.667,330.500 20.633,330.500 20.250 C 330.500 19.867,330.439 19.833,329.750 19.833 C 329.111 19.833,329.000 19.784,329.000 19.500 C 329.000 19.201,328.889 19.167,327.917 19.167 C 327.076 19.167,326.833 19.112,326.833 18.923 C 326.833 18.788,326.688 18.601,326.511 18.506 C 326.156 18.316,318.964 18.259,318.778 18.444 M218.833 27.000 C 218.833 27.284,218.944 27.333,219.583 27.333 C 220.272 27.333,220.333 27.367,220.333 27.750 C 220.333 28.056,220.422 28.167,220.667 28.167 C 220.889 28.167,221.000 28.278,221.000 28.500 C 221.000 28.744,221.111 28.833,221.417 28.833 C 221.799 28.833,221.833 28.894,221.833 29.583 C 221.833 30.216,221.884 30.333,222.159 30.333 C 222.445 30.333,222.491 30.470,222.534 31.458 C 222.579 32.481,222.618 32.588,222.958 32.637 L 223.333 32.690 223.333 37.178 L 223.333 41.667 222.917 41.667 C 222.514 41.667,222.500 41.705,222.500 42.766 C 222.500 43.724,222.457 43.876,222.167 43.952 C 221.908 44.019,221.833 44.179,221.833 44.668 C 221.833 45.200,221.769 45.313,221.417 45.402 C 221.148 45.469,221.000 45.623,221.000 45.837 C 221.000 46.056,220.888 46.167,220.667 46.167 C 220.448 46.167,220.333 46.278,220.333 46.488 C 220.333 46.695,220.199 46.829,219.958 46.863 C 219.717 46.898,219.564 47.051,219.530 47.292 C 219.453 47.835,214.167 47.891,214.167 47.348 C 214.167 47.107,214.007 47.002,213.507 46.918 C 213.065 46.843,212.814 46.701,212.746 46.487 C 212.690 46.311,212.499 46.167,212.322 46.167 C 212.106 46.167,212.000 46.051,212.000 45.818 C 212.000 45.616,211.867 45.434,211.686 45.387 C 211.470 45.330,211.338 45.095,211.264 44.635 C 211.189 44.163,211.061 43.941,210.829 43.880 C 210.535 43.804,210.500 43.648,210.500 42.408 C 210.500 41.169,210.465 41.011,210.167 40.917 C 209.848 40.816,209.833 40.664,209.833 37.500 C 209.833 34.336,209.848 34.184,210.167 34.083 C 210.465 33.989,210.500 33.831,210.500 32.572 C 210.500 31.278,210.526 31.167,210.833 31.167 C 211.067 31.167,211.167 31.055,211.169 30.792 C 211.173 30.122,211.357 29.699,211.682 29.614 C 211.867 29.566,212.000 29.385,212.000 29.182 C 212.000 28.944,212.106 28.833,212.333 28.833 C 212.549 28.833,212.667 28.722,212.667 28.518 C 212.667 28.321,212.823 28.164,213.083 28.098 C 213.352 28.031,213.500 27.877,213.500 27.663 C 213.500 27.388,213.613 27.333,214.182 27.333 C 214.724 27.333,214.882 27.265,214.952 27.000 C 215.032 26.691,215.179 26.667,216.936 26.667 C 218.722 26.667,218.833 26.686,218.833 27.000 M288.667 27.000 C 288.667 27.299,288.778 27.333,289.738 27.333 C 290.723 27.333,290.814 27.364,290.863 27.708 C 290.908 28.020,291.036 28.092,291.625 28.135 L 292.333 28.186 292.333 35.990 C 292.333 43.747,292.331 43.795,291.988 43.885 C 291.797 43.935,291.603 44.124,291.556 44.306 C 291.508 44.487,291.326 44.673,291.151 44.719 C 290.966 44.767,290.833 44.948,290.833 45.151 C 290.833 45.389,290.727 45.500,290.500 45.500 C 290.278 45.500,290.167 45.611,290.167 45.833 C 290.167 46.078,290.056 46.167,289.750 46.167 C 289.453 46.167,289.333 46.257,289.333 46.481 C 289.333 46.726,289.167 46.820,288.583 46.908 C 287.991 46.997,287.833 47.088,287.833 47.344 C 287.833 47.645,287.702 47.667,285.917 47.667 C 284.083 47.667,284.000 47.652,284.000 47.318 C 284.000 47.115,283.867 46.934,283.682 46.886 C 283.507 46.840,283.327 46.659,283.281 46.485 C 283.233 46.300,283.052 46.167,282.849 46.167 C 282.606 46.167,282.500 46.061,282.500 45.818 C 282.500 45.609,282.366 45.434,282.167 45.382 C 281.906 45.313,281.833 45.154,281.833 44.650 C 281.833 44.102,281.771 43.991,281.417 43.902 C 281.014 43.801,281.000 43.750,281.000 42.418 C 281.000 41.179,280.966 41.030,280.667 40.952 C 280.346 40.868,280.333 40.724,280.333 37.099 C 280.333 33.444,280.343 33.333,280.667 33.333 C 280.965 33.333,281.000 33.222,281.000 32.290 C 281.000 31.367,281.044 31.227,281.375 31.081 C 281.649 30.961,281.764 30.751,281.801 30.300 C 281.838 29.863,281.947 29.653,282.176 29.580 C 282.425 29.501,282.500 29.325,282.500 28.822 C 282.500 28.209,282.531 28.167,282.986 28.167 C 283.690 28.167,284.000 28.008,284.000 27.649 C 284.000 27.386,284.125 27.333,284.750 27.333 C 285.389 27.333,285.500 27.284,285.500 27.000 C 285.500 26.690,285.611 26.667,287.083 26.667 C 288.556 26.667,288.667 26.690,288.667 27.000 M323.882 27.000 C 323.951 27.264,324.109 27.333,324.639 27.333 C 325.208 27.333,325.318 27.390,325.363 27.708 C 325.398 27.949,325.551 28.102,325.792 28.137 C 326.033 28.171,326.167 28.305,326.167 28.512 C 326.167 28.722,326.282 28.833,326.500 28.833 C 326.779 28.833,326.833 28.944,326.833 29.516 C 326.833 30.047,326.904 30.216,327.151 30.281 C 327.552 30.386,327.662 30.796,327.664 32.208 L 327.667 33.333 322.000 33.333 L 316.333 33.333 316.333 32.583 C 316.333 31.944,316.383 31.833,316.667 31.833 C 316.966 31.833,317.000 31.722,317.000 30.750 C 317.000 29.706,317.015 29.667,317.417 29.667 C 317.750 29.667,317.833 29.583,317.833 29.250 C 317.833 28.944,317.922 28.833,318.167 28.833 C 318.385 28.833,318.500 28.722,318.500 28.512 C 318.500 28.305,318.634 28.171,318.875 28.137 C 319.116 28.102,319.269 27.949,319.303 27.708 C 319.349 27.384,319.456 27.333,320.095 27.333 C 320.722 27.333,320.833 27.283,320.833 27.000 C 320.833 26.692,320.944 26.667,322.314 26.667 C 323.654 26.667,323.803 26.698,323.882 27.000 M70.167 28.500 C 70.167 28.799,70.056 28.833,69.083 28.833 C 68.039 28.833,68.000 28.848,68.000 29.250 C 68.000 29.633,67.939 29.667,67.250 29.667 C 66.611 29.667,66.500 29.716,66.500 30.000 C 66.500 30.284,66.389 30.333,65.750 30.333 C 65.061 30.333,65.000 30.367,65.000 30.750 C 65.000 31.083,64.917 31.167,64.583 31.167 C 64.278 31.167,64.167 31.256,64.167 31.500 C 64.167 31.722,64.056 31.833,63.833 31.833 C 63.576 31.833,63.500 31.944,63.500 32.320 C 63.500 33.023,63.341 33.333,62.982 33.333 C 62.757 33.333,62.667 33.452,62.667 33.750 C 62.667 34.051,62.577 34.167,62.345 34.167 C 62.167 34.167,61.975 34.317,61.917 34.500 C 61.858 34.683,61.666 34.833,61.489 34.833 C 61.256 34.833,61.167 34.949,61.167 35.250 C 61.167 35.551,61.077 35.667,60.845 35.667 C 60.667 35.667,60.477 35.809,60.422 35.982 C 60.367 36.155,60.175 36.336,59.994 36.383 C 59.800 36.434,59.667 36.611,59.667 36.818 C 59.667 37.056,59.561 37.167,59.333 37.167 C 59.146 37.167,59.000 37.278,59.000 37.421 C 59.000 37.561,58.813 37.746,58.583 37.833 C 58.234 37.966,58.167 38.100,58.167 38.663 C 58.167 39.220,58.111 39.333,57.837 39.333 C 57.623 39.333,57.469 39.481,57.402 39.750 C 57.336 40.011,57.179 40.167,56.982 40.167 C 56.778 40.167,56.667 40.284,56.667 40.500 C 56.667 40.721,56.556 40.833,56.337 40.833 C 56.123 40.833,55.969 40.981,55.902 41.250 C 55.836 41.511,55.679 41.667,55.482 41.667 C 55.278 41.667,55.167 41.784,55.167 42.000 C 55.167 42.187,55.056 42.333,54.913 42.333 C 54.774 42.333,54.574 42.521,54.470 42.750 C 54.365 42.979,54.142 43.167,53.973 43.167 C 53.721 43.167,53.667 43.300,53.667 43.917 C 53.667 44.567,53.620 44.667,53.318 44.667 C 53.109 44.667,52.934 44.801,52.882 45.000 C 52.833 45.184,52.654 45.333,52.481 45.333 C 52.257 45.333,52.167 45.453,52.167 45.750 C 52.167 46.062,52.079 46.167,51.818 46.167 C 51.609 46.167,51.434 46.301,51.382 46.500 C 51.333 46.684,51.154 46.833,50.981 46.833 C 50.757 46.833,50.667 46.953,50.667 47.250 C 50.667 47.583,50.583 47.667,50.250 47.667 C 49.953 47.667,49.833 47.757,49.833 47.981 C 49.833 48.154,49.684 48.333,49.500 48.382 C 49.236 48.451,49.167 48.609,49.167 49.139 C 49.167 49.708,49.110 49.818,48.792 49.863 C 48.481 49.908,48.408 50.036,48.366 50.617 C 48.328 51.137,48.232 51.343,47.991 51.420 C 47.684 51.517,47.667 51.700,47.667 54.841 L 47.667 58.160 48.071 58.262 C 48.327 58.326,48.680 58.698,49.030 59.272 C 49.334 59.772,49.752 60.384,49.958 60.632 C 50.164 60.880,50.333 61.162,50.333 61.259 C 50.334 61.849,54.482 64.270,55.989 64.560 C 56.304 64.621,56.684 64.782,56.834 64.918 C 56.985 65.054,57.440 65.272,57.845 65.404 C 59.136 65.822,59.753 66.075,60.217 66.379 C 60.465 66.542,60.912 66.723,61.209 66.782 C 61.507 66.841,62.420 67.214,63.238 67.611 C 64.056 68.008,64.890 68.333,65.090 68.333 C 65.291 68.333,65.634 68.473,65.853 68.644 C 66.071 68.814,66.438 69.008,66.667 69.074 C 67.540 69.324,68.933 69.918,69.314 70.203 C 69.533 70.366,69.876 70.500,70.076 70.500 C 70.277 70.500,71.110 70.826,71.929 71.224 C 72.747 71.622,73.690 71.999,74.025 72.062 C 74.359 72.124,74.726 72.288,74.840 72.425 C 74.954 72.562,75.376 72.756,75.778 72.858 C 76.708 73.092,77.190 73.660,76.998 74.294 C 76.726 75.194,76.500 76.347,76.500 76.832 C 76.500 77.104,76.389 77.609,76.253 77.955 C 76.117 78.301,75.898 79.446,75.766 80.500 C 75.634 81.554,75.444 82.754,75.343 83.167 C 74.957 84.747,74.624 86.493,74.326 88.500 C 74.156 89.646,73.944 90.921,73.855 91.333 C 73.312 93.851,73.103 94.973,72.834 96.833 C 72.668 97.979,72.481 99.078,72.418 99.275 C 72.300 99.644,73.286 100.000,74.427 100.000 C 74.653 100.000,74.968 100.067,75.127 100.149 C 75.483 100.332,77.272 100.667,77.893 100.667 C 78.144 100.667,78.552 100.767,78.800 100.889 C 79.354 101.162,81.902 101.573,82.239 101.444 C 82.737 101.253,83.127 100.102,83.323 98.250 C 83.429 97.242,83.583 96.192,83.664 95.917 C 83.917 95.059,84.167 93.665,84.167 93.108 C 84.167 92.814,84.269 92.426,84.393 92.245 C 84.518 92.065,84.709 91.054,84.818 90.000 C 84.927 88.946,85.078 87.933,85.154 87.750 C 85.339 87.303,85.667 85.509,85.667 84.940 C 85.667 84.689,85.771 84.281,85.898 84.033 C 86.026 83.786,86.215 82.758,86.320 81.750 C 86.424 80.742,86.578 79.729,86.662 79.500 C 86.745 79.271,86.897 78.408,87.000 77.583 C 87.103 76.758,87.295 75.917,87.427 75.714 C 87.754 75.211,87.761 72.001,87.437 71.367 C 87.310 71.119,87.152 70.654,87.085 70.333 C 86.914 69.517,86.292 68.190,85.672 67.320 C 85.384 66.915,85.004 66.356,84.829 66.079 C 84.494 65.547,82.048 63.833,81.625 63.833 C 81.489 63.833,81.191 63.686,80.962 63.506 C 80.733 63.326,80.217 63.103,79.814 63.010 C 79.412 62.917,78.565 62.578,77.931 62.257 C 77.297 61.935,76.510 61.624,76.181 61.565 C 75.852 61.507,75.433 61.327,75.250 61.165 C 75.067 61.004,74.729 60.819,74.500 60.754 C 73.611 60.503,71.931 59.788,71.709 59.567 C 71.581 59.438,71.350 59.333,71.196 59.332 C 70.373 59.330,69.667 58.980,69.667 58.575 C 69.667 58.351,69.592 58.167,69.500 58.167 C 69.408 58.167,69.333 58.025,69.333 57.851 C 69.333 57.454,69.021 57.333,67.986 57.333 C 67.278 57.333,67.167 57.288,67.167 57.000 C 67.167 56.716,67.056 56.667,66.417 56.667 C 65.792 56.667,65.667 56.614,65.667 56.351 C 65.667 55.947,65.354 55.833,64.236 55.833 C 63.444 55.833,63.333 55.792,63.333 55.500 C 63.333 55.216,63.222 55.167,62.583 55.167 C 61.933 55.167,61.833 55.120,61.833 54.818 C 61.833 54.609,61.699 54.434,61.500 54.382 C 61.316 54.333,61.167 54.154,61.167 53.981 C 61.167 53.778,61.285 53.667,61.500 53.667 C 61.784 53.667,61.833 53.556,61.833 52.917 C 61.833 52.228,61.867 52.167,62.250 52.167 C 62.583 52.167,62.667 52.083,62.667 51.750 C 62.667 51.444,62.756 51.333,63.000 51.333 C 63.222 51.333,63.333 51.222,63.333 51.000 C 63.333 50.756,63.444 50.667,63.750 50.667 C 64.083 50.667,64.167 50.583,64.167 50.250 C 64.167 49.944,64.256 49.833,64.500 49.833 C 64.722 49.833,64.833 49.722,64.833 49.500 C 64.833 49.256,64.944 49.167,65.250 49.167 C 65.583 49.167,65.667 49.083,65.667 48.750 C 65.667 48.444,65.756 48.333,66.000 48.333 C 66.284 48.333,66.333 48.222,66.333 47.583 C 66.333 46.894,66.367 46.833,66.750 46.833 C 67.056 46.833,67.167 46.744,67.167 46.500 C 67.167 46.278,67.278 46.167,67.500 46.167 C 67.744 46.167,67.833 46.056,67.833 45.750 C 67.833 45.417,67.917 45.333,68.250 45.333 C 68.556 45.333,68.667 45.244,68.667 45.000 C 68.667 44.779,68.778 44.667,68.997 44.667 C 69.210 44.667,69.364 44.519,69.432 44.250 C 69.497 43.989,69.654 43.833,69.851 43.833 C 70.056 43.833,70.167 43.716,70.167 43.500 C 70.167 43.278,70.278 43.167,70.500 43.167 C 70.744 43.167,70.833 43.056,70.833 42.750 C 70.833 42.417,70.917 42.333,71.250 42.333 C 71.633 42.333,71.667 42.272,71.667 41.583 C 71.667 40.953,71.718 40.833,71.989 40.833 C 72.166 40.833,72.358 40.683,72.417 40.500 C 72.475 40.317,72.667 40.167,72.845 40.167 C 73.056 40.167,73.167 40.282,73.167 40.500 C 73.167 40.744,73.278 40.833,73.583 40.833 C 73.917 40.833,74.000 40.917,74.000 41.250 C 74.000 41.633,74.061 41.667,74.750 41.667 C 75.389 41.667,75.500 41.716,75.500 42.000 C 75.500 42.222,75.611 42.333,75.833 42.333 C 76.078 42.333,76.167 42.444,76.167 42.750 C 76.167 43.133,76.228 43.167,76.917 43.167 C 77.556 43.167,77.667 43.216,77.667 43.500 C 77.667 43.744,77.778 43.833,78.083 43.833 C 78.417 43.833,78.500 43.917,78.500 44.250 C 78.500 44.556,78.589 44.667,78.833 44.667 C 79.056 44.667,79.167 44.778,79.167 45.000 C 79.167 45.244,79.278 45.333,79.583 45.333 C 79.917 45.333,80.000 45.417,80.000 45.750 C 80.000 46.133,80.061 46.167,80.750 46.167 C 81.389 46.167,81.500 46.216,81.500 46.500 C 81.500 46.722,81.611 46.833,81.833 46.833 C 82.078 46.833,82.167 46.944,82.167 47.250 C 82.167 47.633,82.228 47.667,82.917 47.667 C 83.556 47.667,83.667 47.716,83.667 48.000 C 83.667 48.244,83.778 48.333,84.083 48.333 C 84.417 48.333,84.500 48.417,84.500 48.750 C 84.500 49.056,84.589 49.167,84.833 49.167 C 85.056 49.167,85.167 49.278,85.167 49.500 C 85.167 49.744,85.278 49.833,85.583 49.833 C 85.917 49.833,86.000 49.917,86.000 50.250 C 86.000 50.633,86.061 50.667,86.750 50.667 C 87.389 50.667,87.500 50.716,87.500 51.000 C 87.500 51.222,87.611 51.333,87.833 51.333 C 88.078 51.333,88.167 51.444,88.167 51.750 C 88.167 52.133,88.228 52.167,88.917 52.167 C 89.556 52.167,89.667 52.216,89.667 52.500 C 89.667 52.744,89.778 52.833,90.083 52.833 C 90.417 52.833,90.500 52.917,90.500 53.250 C 90.500 53.556,90.589 53.667,90.833 53.667 C 91.056 53.667,91.167 53.778,91.167 54.000 C 91.167 54.244,91.278 54.333,91.583 54.333 C 91.917 54.333,92.000 54.417,92.000 54.750 C 92.000 55.133,92.061 55.167,92.750 55.167 C 93.389 55.167,93.500 55.216,93.500 55.500 C 93.500 55.722,93.611 55.833,93.833 55.833 C 94.078 55.833,94.167 55.944,94.167 56.250 C 94.167 56.633,94.228 56.667,94.917 56.667 C 95.556 56.667,95.667 56.716,95.667 57.000 C 95.667 57.244,95.778 57.333,96.083 57.333 C 96.409 57.333,96.500 57.418,96.500 57.723 C 96.500 58.086,96.597 58.126,97.875 58.296 C 99.576 58.522,126.457 58.457,127.333 58.224 L 127.917 58.070 127.961 52.868 L 128.005 47.667 127.586 47.667 C 127.250 47.667,127.167 47.584,127.167 47.250 L 127.167 46.833 114.417 46.833 C 101.778 46.833,101.667 46.830,101.667 46.500 C 101.667 46.216,101.556 46.167,100.917 46.167 C 100.228 46.167,100.167 46.133,100.167 45.750 C 100.167 45.453,100.076 45.333,99.853 45.333 C 99.679 45.333,99.500 45.184,99.452 45.000 C 99.401 44.805,99.224 44.667,99.027 44.667 C 98.804 44.667,98.672 44.540,98.637 44.292 C 98.592 43.980,98.464 43.908,97.875 43.865 C 97.302 43.824,97.167 43.752,97.167 43.490 C 97.167 43.284,97.052 43.167,96.853 43.167 C 96.675 43.167,96.500 43.016,96.448 42.821 C 96.399 42.631,96.203 42.435,96.012 42.385 C 95.817 42.334,95.667 42.158,95.667 41.981 C 95.667 41.720,95.540 41.667,94.917 41.667 C 94.228 41.667,94.167 41.633,94.167 41.250 C 94.167 40.953,94.076 40.833,93.853 40.833 C 93.679 40.833,93.500 40.684,93.452 40.500 C 93.401 40.305,93.224 40.167,93.027 40.167 C 92.804 40.167,92.672 40.040,92.637 39.792 C 92.592 39.480,92.464 39.408,91.875 39.365 C 91.302 39.324,91.167 39.252,91.167 38.990 C 91.167 38.784,91.052 38.667,90.851 38.667 C 90.654 38.667,90.497 38.511,90.432 38.250 C 90.364 37.981,90.210 37.833,89.997 37.833 C 89.778 37.833,89.667 37.721,89.667 37.500 C 89.667 37.216,89.556 37.167,88.917 37.167 C 88.228 37.167,88.167 37.133,88.167 36.750 C 88.167 36.449,88.077 36.333,87.845 36.333 C 87.667 36.333,87.475 36.183,87.417 36.000 C 87.358 35.817,87.171 35.667,87.000 35.667 C 86.805 35.667,86.670 35.527,86.637 35.292 C 86.592 34.980,86.464 34.908,85.875 34.865 C 85.302 34.824,85.167 34.752,85.167 34.490 C 85.167 34.284,85.052 34.167,84.851 34.167 C 84.654 34.167,84.497 34.011,84.432 33.750 C 84.364 33.481,84.210 33.333,83.997 33.333 C 83.778 33.333,83.667 33.221,83.667 33.000 C 83.667 32.716,83.556 32.667,82.917 32.667 C 82.228 32.667,82.167 32.633,82.167 32.250 C 82.167 31.949,82.077 31.833,81.845 31.833 C 81.667 31.833,81.475 31.683,81.417 31.500 C 81.358 31.317,81.171 31.167,81.000 31.167 C 80.805 31.167,80.670 31.027,80.637 30.792 C 80.592 30.480,80.464 30.408,79.875 30.365 C 79.302 30.324,79.167 30.252,79.167 29.990 C 79.167 29.779,79.052 29.667,78.837 29.667 C 78.623 29.667,78.469 29.519,78.402 29.250 C 78.304 28.860,78.229 28.833,77.232 28.833 C 76.278 28.833,76.167 28.799,76.167 28.500 C 76.167 28.179,76.056 28.167,73.167 28.167 C 70.278 28.167,70.167 28.179,70.167 28.500 M166.250 64.601 C 165.380 64.808,164.389 65.393,164.122 65.857 C 163.852 66.328,163.833 67.798,163.833 88.391 L 163.833 110.423 164.255 111.043 C 164.486 111.384,164.843 111.698,165.046 111.740 C 167.429 112.240,168.033 112.267,170.144 111.972 C 171.494 111.784,171.554 111.756,172.019 111.114 L 172.500 110.450 172.500 95.340 C 172.500 79.233,172.534 78.528,173.232 80.186 C 173.371 80.517,173.773 81.229,174.124 81.769 C 174.476 82.309,174.858 82.938,174.973 83.167 C 175.088 83.396,175.364 83.883,175.585 84.250 C 175.807 84.617,176.197 85.292,176.451 85.750 C 176.706 86.208,177.044 86.808,177.201 87.083 C 177.358 87.358,177.609 87.808,177.758 88.083 C 177.907 88.358,178.246 88.958,178.512 89.417 C 178.778 89.875,179.149 90.550,179.338 90.917 C 179.527 91.283,179.846 91.858,180.049 92.193 C 180.818 93.469,181.525 94.709,181.682 95.056 C 182.197 96.200,184.155 99.276,184.554 99.570 C 185.841 100.518,189.961 99.964,190.661 98.750 C 190.766 98.567,191.069 98.042,191.334 97.583 C 191.599 97.125,191.973 96.450,192.165 96.083 C 192.357 95.717,192.698 95.117,192.923 94.750 C 193.147 94.383,193.437 93.858,193.567 93.583 C 193.698 93.308,193.867 93.021,193.944 92.945 C 194.020 92.868,194.383 92.254,194.750 91.580 C 195.429 90.331,199.778 82.677,200.455 81.541 C 200.659 81.197,200.954 80.673,201.111 80.375 C 201.357 79.905,201.568 79.728,201.705 79.875 C 201.727 79.898,201.783 86.854,201.830 95.333 L 201.917 110.750 202.402 111.228 C 203.282 112.094,206.053 112.417,208.417 111.929 C 209.841 111.635,210.068 111.467,210.334 110.508 C 210.628 109.448,210.553 66.616,210.256 65.904 C 209.417 63.898,201.558 63.995,200.281 66.027 C 199.877 66.671,197.772 70.306,197.305 71.167 C 196.972 71.782,196.481 72.643,195.833 73.750 C 195.619 74.117,195.287 74.691,195.097 75.026 C 194.022 76.915,191.687 80.990,191.302 81.649 C 191.055 82.071,190.739 82.642,190.599 82.917 C 190.460 83.192,190.142 83.754,189.894 84.167 C 189.646 84.579,189.287 85.191,189.097 85.525 C 188.906 85.860,188.506 86.553,188.208 87.065 C 187.910 87.576,187.667 88.062,187.667 88.144 C 187.667 88.226,187.559 88.382,187.427 88.491 C 187.126 88.741,186.692 88.134,185.350 85.583 C 185.157 85.217,184.815 84.617,184.590 84.250 C 184.365 83.883,184.027 83.283,183.838 82.917 C 183.649 82.550,183.312 81.950,183.088 81.583 C 182.864 81.217,182.527 80.617,182.338 80.250 C 182.149 79.883,181.811 79.283,181.587 78.917 C 181.362 78.550,181.061 78.025,180.918 77.750 C 180.775 77.475,180.454 76.901,180.204 76.474 C 179.954 76.048,178.594 73.652,177.181 71.150 C 173.320 64.313,173.720 64.645,169.250 64.568 C 167.783 64.543,166.433 64.558,166.250 64.601 M314.407 68.299 C 313.374 68.653,312.995 69.207,312.750 70.722 C 312.621 71.521,312.481 72.229,312.440 72.296 C 312.399 72.362,312.281 73.279,312.177 74.333 C 311.958 76.559,311.883 76.665,310.510 76.671 C 309.736 76.675,309.487 76.755,309.000 77.159 L 308.417 77.642 308.417 80.085 L 308.417 82.528 308.884 82.931 C 309.252 83.248,309.541 83.333,310.241 83.333 C 311.952 83.333,311.810 82.401,311.891 94.167 C 311.961 104.383,312.041 105.876,312.568 106.721 C 312.692 106.920,312.841 107.287,312.899 107.536 C 313.537 110.289,316.888 112.169,321.364 112.286 C 326.785 112.427,328.153 111.091,326.721 107.051 C 326.202 105.588,325.985 105.479,323.855 105.617 C 322.151 105.728,321.480 105.464,320.842 104.430 C 320.426 103.758,320.292 83.941,320.700 83.533 C 320.835 83.399,321.593 83.333,323.020 83.333 C 326.063 83.333,326.333 83.069,326.333 80.086 C 326.333 77.166,325.941 76.780,322.850 76.667 L 320.583 76.583 320.488 73.000 C 320.436 71.029,320.380 69.408,320.363 69.398 C 320.347 69.387,320.113 69.126,319.844 68.818 L 319.355 68.258 317.052 68.220 C 315.786 68.199,314.596 68.235,314.407 68.299 M39.833 68.666 C 39.696 68.755,39.096 68.833,38.500 68.838 C 36.704 68.854,34.973 69.128,32.838 69.732 C 31.768 70.034,27.756 71.991,26.767 72.693 C 26.391 72.960,25.821 73.355,25.500 73.571 C 25.179 73.786,24.204 74.717,23.333 75.638 C 20.669 78.458,19.858 79.500,19.512 80.547 C 19.404 80.873,19.222 81.219,19.106 81.315 C 18.913 81.475,18.593 82.126,17.828 83.917 C 17.672 84.283,17.450 85.033,17.336 85.583 C 17.221 86.133,17.032 86.771,16.916 87.000 C 16.209 88.390,16.179 96.925,16.876 98.242 C 16.971 98.421,17.146 98.909,17.267 99.326 C 17.709 100.861,18.203 102.087,18.432 102.217 C 18.561 102.290,18.667 102.528,18.667 102.745 C 18.667 102.963,18.842 103.353,19.056 103.612 C 19.270 103.871,19.660 104.527,19.923 105.070 C 20.185 105.613,20.592 106.262,20.825 106.513 C 21.059 106.764,21.813 107.617,22.500 108.409 C 23.658 109.743,25.997 111.833,26.331 111.833 C 26.411 111.833,26.602 111.959,26.756 112.113 C 27.086 112.443,27.369 112.606,29.814 113.875 C 30.830 114.402,31.815 114.833,32.004 114.833 C 32.192 114.833,32.653 114.990,33.028 115.181 C 33.403 115.372,34.131 115.570,34.646 115.620 C 35.831 115.736,36.224 115.931,36.115 116.348 C 36.035 116.654,36.163 116.667,39.349 116.667 L 42.667 116.667 42.667 116.253 C 42.667 115.813,42.748 115.777,44.167 115.589 C 45.945 115.352,48.231 114.757,48.745 114.397 C 48.926 114.270,49.230 114.167,49.421 114.167 C 49.612 114.167,50.023 113.979,50.333 113.750 C 50.644 113.521,51.007 113.333,51.140 113.333 C 51.273 113.333,51.791 113.052,52.292 112.708 C 52.792 112.365,53.325 112.006,53.476 111.912 C 53.627 111.818,54.007 111.494,54.321 111.193 C 54.635 110.892,55.108 110.533,55.373 110.396 C 55.924 110.111,57.833 108.225,57.833 107.966 C 57.833 107.871,58.142 107.486,58.519 107.109 C 58.896 106.732,59.272 106.272,59.354 106.087 C 59.436 105.902,59.803 105.337,60.168 104.833 C 60.534 104.329,60.833 103.796,60.833 103.647 C 60.833 103.499,60.976 103.197,61.151 102.975 C 61.325 102.753,61.552 102.259,61.655 101.876 C 61.758 101.494,61.906 101.142,61.983 101.094 C 62.060 101.046,62.172 100.767,62.230 100.473 C 62.289 100.179,62.438 99.821,62.561 99.678 C 62.685 99.534,62.876 98.817,62.986 98.083 C 63.096 97.350,63.249 96.487,63.326 96.167 C 63.736 94.462,63.791 94.081,63.674 93.765 C 63.603 93.574,63.619 93.207,63.709 92.949 C 63.799 92.691,63.826 92.091,63.768 91.615 C 63.500 89.398,63.362 88.540,63.188 88.001 C 63.085 87.681,63.000 87.171,63.000 86.868 C 63.000 86.565,62.890 86.103,62.755 85.842 C 62.620 85.581,62.429 85.012,62.332 84.578 C 62.235 84.143,62.008 83.600,61.828 83.371 C 61.647 83.142,61.500 82.850,61.500 82.722 C 61.500 82.404,60.777 81.002,60.164 80.132 C 59.887 79.739,59.387 79.004,59.052 78.500 C 58.346 77.438,58.267 77.343,56.655 75.625 C 55.989 74.915,55.341 74.333,55.215 74.333 C 55.089 74.333,54.633 74.011,54.201 73.617 C 53.495 72.971,52.980 72.580,52.187 72.083 C 52.040 71.992,51.741 71.785,51.521 71.625 C 51.301 71.465,50.992 71.333,50.833 71.333 C 50.675 71.333,50.353 71.183,50.119 70.999 C 49.885 70.814,49.444 70.616,49.139 70.558 C 48.833 70.500,48.360 70.340,48.087 70.202 C 47.637 69.975,47.105 69.819,45.083 69.316 C 44.717 69.225,43.554 69.053,42.500 68.933 C 41.446 68.814,40.471 68.668,40.333 68.610 C 40.196 68.551,39.971 68.577,39.833 68.666 M118.684 68.652 C 118.556 68.733,117.544 68.848,116.434 68.906 C 114.952 68.985,114.129 69.116,113.333 69.402 C 112.737 69.615,111.987 69.884,111.667 69.998 C 111.346 70.112,110.671 70.317,110.167 70.453 C 109.662 70.589,109.138 70.791,109.000 70.901 C 108.862 71.011,108.263 71.349,107.667 71.652 C 107.071 71.955,106.471 72.309,106.333 72.439 C 105.985 72.767,104.847 73.500,104.685 73.500 C 104.437 73.500,100.752 77.409,100.207 78.250 C 99.910 78.708,99.552 79.233,99.411 79.417 C 98.898 80.085,98.385 80.944,98.017 81.754 C 97.810 82.210,97.458 82.940,97.237 83.375 C 97.015 83.811,96.832 84.298,96.830 84.458 C 96.828 84.619,96.670 85.087,96.480 85.500 C 95.533 87.554,94.979 94.623,95.660 95.980 C 95.734 96.129,95.926 96.956,96.087 97.818 C 96.248 98.680,96.473 99.580,96.588 99.818 C 97.149 100.974,97.500 101.871,97.500 102.149 C 97.500 102.317,97.640 102.634,97.810 102.853 C 97.981 103.071,98.177 103.438,98.246 103.667 C 98.315 103.896,98.505 104.233,98.667 104.417 C 98.829 104.600,99.130 105.087,99.335 105.500 C 99.972 106.784,103.377 110.463,104.750 111.352 C 105.300 111.708,105.862 112.076,106.000 112.170 C 107.049 112.888,107.652 113.254,108.167 113.485 C 108.396 113.587,108.958 113.904,109.417 114.189 C 110.477 114.848,112.027 115.304,114.167 115.589 C 115.585 115.777,115.667 115.813,115.667 116.253 L 115.667 116.667 118.583 116.667 L 121.500 116.667 121.500 116.250 C 121.500 116.021,121.519 115.827,121.542 115.819 C 121.565 115.811,122.333 115.706,123.250 115.586 C 124.845 115.378,125.682 115.151,127.333 114.480 C 127.746 114.312,128.362 114.128,128.702 114.070 C 129.043 114.012,129.405 113.864,129.507 113.741 C 129.610 113.618,129.969 113.428,130.305 113.318 C 130.641 113.209,131.190 112.875,131.523 112.577 C 131.857 112.278,132.288 111.984,132.482 111.923 C 132.675 111.861,132.833 111.745,132.833 111.664 C 132.833 111.584,133.265 111.236,133.792 110.891 C 134.319 110.546,135.316 109.699,136.007 109.007 C 137.100 107.914,137.563 107.326,138.833 105.417 C 138.971 105.210,139.364 104.631,139.707 104.130 C 140.050 103.629,140.379 102.980,140.437 102.689 C 140.495 102.398,140.606 102.121,140.684 102.073 C 140.761 102.025,140.908 101.670,141.011 101.285 C 141.114 100.899,141.304 100.464,141.435 100.317 C 141.566 100.171,141.786 99.646,141.925 99.150 C 142.587 96.788,142.667 96.083,142.667 92.627 C 142.667 89.302,142.581 88.467,142.069 86.833 C 141.940 86.421,141.785 85.708,141.725 85.250 C 141.665 84.792,141.477 84.238,141.308 84.019 C 141.139 83.801,141.000 83.517,141.000 83.389 C 141.000 83.095,140.223 81.546,139.811 81.019 C 139.640 80.801,139.500 80.525,139.500 80.406 C 139.500 80.080,138.837 79.086,138.042 78.219 C 137.652 77.794,137.333 77.384,137.333 77.308 C 137.333 77.093,134.790 74.577,134.328 74.336 C 133.914 74.119,133.762 74.001,133.001 73.299 C 131.739 72.136,127.342 69.926,125.814 69.686 C 125.229 69.595,124.412 69.436,124.000 69.333 C 123.587 69.230,122.375 69.057,121.305 68.948 C 120.235 68.839,119.304 68.694,119.235 68.625 C 119.077 68.465,118.971 68.470,118.684 68.652 M228.917 76.326 C 228.733 76.409,228.021 76.485,227.333 76.496 C 226.646 76.506,225.783 76.579,225.417 76.657 C 223.933 76.976,221.902 77.556,221.586 77.752 C 221.401 77.867,221.046 78.008,220.797 78.065 C 220.288 78.183,219.064 78.969,218.613 79.468 C 217.610 80.576,218.190 82.790,219.959 84.605 C 220.861 85.531,221.559 85.503,223.413 84.467 C 223.594 84.366,224.082 84.187,224.496 84.069 C 224.911 83.951,225.588 83.727,226.000 83.571 C 226.977 83.202,231.653 83.034,233.000 83.320 C 234.169 83.569,235.104 84.211,235.797 85.240 L 236.343 86.053 236.297 87.985 L 236.250 89.917 234.083 90.041 C 232.892 90.110,231.317 90.274,230.583 90.406 C 229.850 90.539,228.800 90.694,228.250 90.751 C 227.157 90.865,225.502 91.312,223.872 91.934 C 223.297 92.154,222.750 92.333,222.657 92.333 C 222.563 92.333,222.283 92.473,222.035 92.644 C 221.787 92.815,221.142 93.238,220.603 93.584 C 214.412 97.558,214.388 108.078,220.562 111.192 C 223.479 112.664,228.843 112.746,231.833 111.365 C 233.079 110.790,235.337 109.151,235.717 108.546 C 236.214 107.754,237.169 107.854,237.166 108.697 C 237.163 109.418,238.093 111.395,238.572 111.687 C 239.873 112.480,244.911 111.599,245.451 110.484 C 245.659 110.055,245.346 106.754,245.053 106.288 C 244.982 106.176,244.880 101.208,244.826 95.250 L 244.727 84.417 244.231 83.250 C 242.136 78.324,238.787 76.562,230.917 76.243 C 230.000 76.206,229.100 76.243,228.917 76.326 M264.583 76.337 C 264.217 76.416,263.504 76.488,263.000 76.498 C 262.496 76.507,261.783 76.630,261.417 76.772 C 261.050 76.913,260.412 77.122,260.000 77.235 C 257.004 78.057,253.890 80.746,252.443 83.762 C 252.182 84.306,251.870 84.938,251.750 85.167 C 251.630 85.396,251.452 86.015,251.355 86.542 C 251.257 87.070,251.089 87.667,250.981 87.870 C 250.168 89.388,250.179 98.256,250.997 100.917 C 251.166 101.467,251.353 102.135,251.412 102.402 C 251.895 104.571,254.496 108.241,256.518 109.605 C 257.366 110.177,259.348 111.167,259.646 111.167 C 259.758 111.167,260.083 111.287,260.367 111.434 C 262.860 112.723,270.468 112.665,274.750 111.325 C 279.479 109.844,280.524 108.189,278.585 105.250 C 277.330 103.348,276.646 103.095,274.933 103.899 C 267.498 107.390,261.110 105.767,259.585 100.000 C 258.750 96.839,257.658 97.179,268.833 97.127 C 279.412 97.077,278.531 97.212,279.860 95.439 L 280.750 94.250 280.705 92.129 C 280.659 89.997,280.596 89.534,280.010 87.083 C 279.080 83.194,276.304 78.992,274.048 78.061 C 273.701 77.917,273.304 77.703,273.167 77.585 C 273.029 77.467,272.654 77.316,272.333 77.248 C 272.012 77.181,271.531 77.014,271.263 76.877 C 270.410 76.442,265.821 76.070,264.583 76.337 M292.960 76.421 C 291.472 76.638,289.895 77.173,289.186 77.703 C 288.967 77.866,288.724 78.000,288.646 78.000 C 288.000 78.000,285.631 80.448,285.124 81.640 C 285.020 81.884,284.849 82.196,284.744 82.333 C 283.569 83.865,283.694 89.605,284.951 91.816 C 285.707 93.148,287.526 94.819,288.885 95.432 C 289.177 95.564,289.529 95.740,289.667 95.823 C 290.216 96.154,291.453 96.718,292.083 96.924 C 297.316 98.636,299.010 100.433,298.057 103.262 C 297.472 104.996,296.150 105.673,293.323 105.685 C 291.924 105.691,291.233 105.624,290.893 105.450 C 290.631 105.316,290.154 105.151,289.833 105.082 C 289.292 104.966,288.505 104.617,286.958 103.806 C 285.995 103.301,285.348 103.629,284.274 105.167 C 282.147 108.213,282.767 109.607,287.049 111.403 C 289.261 112.331,295.772 112.878,297.249 112.261 C 297.563 112.130,298.180 111.970,298.619 111.905 C 301.609 111.466,305.698 107.853,306.245 105.167 C 306.310 104.846,306.479 104.246,306.620 103.833 C 307.801 100.379,306.169 95.619,303.080 93.509 C 301.553 92.466,301.412 92.381,300.997 92.254 C 300.769 92.184,300.471 92.032,300.333 91.917 C 300.196 91.801,299.896 91.656,299.667 91.594 C 299.235 91.479,298.213 91.061,296.719 90.389 C 296.243 90.175,295.801 90.000,295.736 90.000 C 295.464 90.000,293.846 88.804,293.301 88.201 C 290.987 85.640,293.967 82.199,297.833 82.966 C 298.337 83.066,299.125 83.198,299.583 83.259 C 300.042 83.320,300.591 83.479,300.803 83.613 C 302.793 84.866,303.800 84.400,304.997 81.673 C 306.104 79.151,305.402 78.083,301.932 77.008 C 299.452 76.240,295.828 76.003,292.960 76.421 M345.333 76.425 C 343.424 76.813,340.725 78.771,339.899 80.368 C 339.766 80.624,339.623 80.833,339.579 80.833 C 339.452 80.833,338.672 79.139,338.492 78.472 C 338.113 77.062,337.221 76.802,334.083 77.184 C 330.829 77.580,330.481 78.016,330.920 81.145 C 331.206 83.179,331.248 84.835,331.328 97.000 C 331.428 112.305,331.361 111.543,332.625 111.758 C 332.969 111.816,333.512 111.932,333.833 112.014 C 335.526 112.451,338.536 112.009,339.292 111.213 L 339.833 110.643 339.833 98.974 L 339.833 87.304 340.875 86.219 C 342.983 84.024,344.360 83.552,347.166 84.065 C 349.677 84.525,350.481 83.530,350.494 79.949 L 350.500 78.147 349.789 77.394 C 348.755 76.300,347.402 76.006,345.333 76.425 M365.833 76.342 C 365.421 76.415,364.732 76.481,364.302 76.488 C 362.858 76.510,359.761 77.647,358.250 78.709 C 357.883 78.967,357.396 79.305,357.167 79.461 C 355.459 80.624,353.177 84.236,352.668 86.583 C 352.569 87.042,352.381 87.717,352.252 88.083 C 351.462 90.320,351.515 98.055,352.340 100.859 C 352.520 101.469,352.667 102.079,352.667 102.214 C 352.667 102.455,353.339 104.094,353.708 104.750 C 353.810 104.933,354.008 105.308,354.146 105.582 C 355.654 108.569,359.432 111.255,363.083 111.935 C 367.079 112.678,372.468 112.399,374.432 111.346 C 374.788 111.156,375.180 111.000,375.305 111.000 C 375.429 111.000,375.721 110.850,375.955 110.667 C 376.188 110.483,376.471 110.333,376.585 110.333 C 376.698 110.333,377.234 109.977,377.777 109.542 C 380.517 107.341,382.044 104.775,383.107 100.583 C 383.642 98.477,383.804 90.805,383.349 89.167 C 383.234 88.754,383.007 87.854,382.844 87.167 C 382.682 86.479,382.426 85.692,382.275 85.417 C 382.125 85.142,382.002 84.796,382.001 84.647 C 382.000 84.499,381.860 84.199,381.690 83.981 C 381.519 83.762,381.321 83.396,381.249 83.167 C 381.105 82.705,379.513 80.708,378.642 79.896 C 377.004 78.368,374.322 77.046,372.083 76.662 C 369.286 76.183,367.299 76.081,365.833 76.342 M42.181 79.563 C 42.693 79.604,43.405 79.794,43.762 79.985 C 44.119 80.177,44.607 80.333,44.847 80.333 C 45.086 80.333,45.416 80.482,45.580 80.663 C 45.745 80.845,46.133 81.041,46.444 81.099 C 47.109 81.224,50.403 84.364,50.993 85.436 C 51.189 85.792,51.457 86.271,51.589 86.500 C 51.996 87.211,52.500 88.467,52.504 88.783 C 52.506 88.948,52.656 89.410,52.837 89.810 C 53.247 90.714,53.314 93.893,52.938 94.633 C 52.812 94.881,52.657 95.511,52.594 96.033 C 52.530 96.555,52.343 97.155,52.179 97.366 C 52.014 97.577,51.821 97.936,51.749 98.163 C 51.678 98.391,51.492 98.766,51.336 98.997 C 51.180 99.228,50.837 99.754,50.574 100.167 C 50.027 101.025,48.581 102.523,47.998 102.834 C 47.782 102.950,47.525 103.111,47.427 103.192 C 45.455 104.829,43.317 105.515,39.861 105.622 C 38.241 105.673,37.724 105.634,37.427 105.439 C 37.219 105.302,36.757 105.138,36.399 105.072 C 34.109 104.654,28.944 100.640,28.583 98.999 C 28.526 98.739,28.334 98.360,28.156 98.155 C 27.979 97.950,27.833 97.642,27.833 97.469 C 27.833 97.297,27.637 96.691,27.398 96.121 C 26.859 94.842,26.724 90.029,27.206 89.293 C 27.345 89.082,27.511 88.594,27.576 88.209 C 27.641 87.824,27.912 87.188,28.178 86.796 C 28.443 86.404,28.662 86.007,28.664 85.914 C 28.665 85.820,28.963 85.386,29.324 84.948 C 29.686 84.510,30.028 84.024,30.084 83.868 C 30.140 83.711,30.521 83.321,30.930 83.000 C 31.340 82.679,31.917 82.221,32.213 81.981 C 32.508 81.742,33.012 81.414,33.333 81.253 C 33.654 81.092,34.029 80.864,34.167 80.748 C 34.874 80.148,36.772 79.592,38.417 79.502 C 40.062 79.412,40.349 79.417,42.181 79.563 M122.364 79.847 C 122.610 80.019,123.159 80.238,123.583 80.333 C 126.021 80.880,129.529 83.772,130.456 86.000 C 130.589 86.321,130.841 86.738,131.015 86.926 C 131.189 87.115,131.379 87.640,131.438 88.093 C 131.497 88.546,131.638 89.029,131.751 89.167 C 132.361 89.905,132.264 94.912,131.611 96.370 C 131.458 96.710,131.333 97.127,131.333 97.296 C 131.333 97.464,131.146 97.856,130.917 98.167 C 130.688 98.477,130.500 98.866,130.500 99.029 C 130.500 99.193,130.162 99.680,129.750 100.110 C 129.337 100.541,129.000 100.982,129.000 101.090 C 129.000 101.438,126.722 103.357,126.064 103.564 C 125.869 103.625,125.577 103.823,125.413 104.004 C 125.249 104.185,124.995 104.334,124.849 104.334 C 124.703 104.335,124.368 104.448,124.105 104.585 C 123.842 104.722,123.092 104.954,122.438 105.100 C 121.785 105.246,121.078 105.434,120.867 105.516 C 120.369 105.712,117.755 105.711,117.095 105.515 C 116.814 105.431,116.223 105.280,115.782 105.179 C 115.342 105.079,114.779 104.854,114.532 104.680 C 114.285 104.507,113.812 104.319,113.481 104.262 C 113.150 104.206,112.745 104.012,112.580 103.830 C 112.416 103.649,112.207 103.500,112.116 103.500 C 112.026 103.500,111.591 103.181,111.150 102.792 C 110.709 102.402,110.082 101.869,109.757 101.608 C 109.114 101.091,107.333 98.535,107.333 98.129 C 107.333 97.991,107.189 97.695,107.013 97.471 C 106.837 97.247,106.603 96.581,106.493 95.990 C 106.382 95.400,106.222 94.763,106.136 94.576 C 105.874 94.003,106.068 90.198,106.408 89.250 C 107.155 87.163,107.548 86.281,108.046 85.570 C 108.342 85.149,108.668 84.655,108.771 84.474 C 109.542 83.118,113.213 80.341,114.250 80.330 C 114.433 80.328,114.921 80.169,115.333 79.978 C 116.786 79.302,121.464 79.215,122.364 79.847 M268.417 83.352 C 270.710 83.981,273.085 88.681,272.232 90.903 C 272.082 91.295,259.655 91.305,259.331 90.913 C 259.101 90.637,259.689 87.676,260.074 87.167 C 260.178 87.029,260.384 86.654,260.531 86.333 C 261.690 83.808,265.219 82.474,268.417 83.352 M371.041 83.817 C 373.851 85.423,375.101 88.792,375.066 94.667 C 375.053 96.905,374.985 97.769,374.774 98.381 C 374.623 98.819,374.499 99.419,374.498 99.714 C 374.498 100.009,374.312 100.625,374.087 101.083 C 373.862 101.542,373.675 101.969,373.672 102.033 C 373.669 102.097,373.440 102.485,373.164 102.895 C 370.392 107.001,363.846 106.495,361.595 102.000 C 360.233 99.281,359.687 92.072,360.642 89.422 C 360.839 88.876,361.000 88.292,361.000 88.126 C 361.000 87.274,363.283 84.000,363.877 84.000 C 363.962 84.000,364.233 83.857,364.480 83.681 C 365.543 82.924,369.627 83.009,371.041 83.817 M236.070 96.101 C 236.294 96.187,236.333 96.580,236.333 98.745 L 236.333 101.287 235.854 101.891 C 235.154 102.771,233.826 103.993,233.250 104.287 C 232.975 104.427,232.655 104.618,232.538 104.711 C 230.235 106.550,225.958 105.765,224.851 103.301 C 223.684 100.700,226.233 96.833,229.116 96.833 C 229.294 96.833,229.847 96.712,230.345 96.564 C 231.599 96.191,235.486 95.877,236.070 96.101 "
    stroke="none" fill="#54759a" fill-rule="evenodd"></path>
  <path id="path1"
    d="M0.000 87.417 L 0.000 116.667 18.005 116.667 C 34.199 116.667,36.021 116.640,36.111 116.405 C 36.272 115.985,35.914 115.783,34.762 115.645 C 34.168 115.573,33.382 115.361,33.015 115.174 C 32.647 114.987,32.192 114.833,32.004 114.833 C 31.815 114.833,30.830 114.402,29.814 113.875 C 27.369 112.606,27.086 112.443,26.756 112.113 C 26.602 111.959,26.411 111.833,26.331 111.833 C 25.997 111.833,23.658 109.743,22.500 108.409 C 21.813 107.617,21.059 106.764,20.825 106.513 C 20.592 106.262,20.185 105.613,19.923 105.070 C 19.660 104.527,19.270 103.871,19.056 103.612 C 18.842 103.353,18.667 102.963,18.667 102.745 C 18.667 102.528,18.561 102.290,18.432 102.217 C 18.203 102.087,17.709 100.861,17.267 99.326 C 17.146 98.909,16.971 98.421,16.876 98.242 C 16.179 96.925,16.209 88.390,16.916 87.000 C 17.032 86.771,17.221 86.133,17.336 85.583 C 17.450 85.033,17.672 84.283,17.828 83.917 C 18.593 82.126,18.913 81.475,19.106 81.315 C 19.222 81.219,19.404 80.873,19.512 80.547 C 19.858 79.500,20.669 78.458,23.333 75.638 C 24.204 74.717,25.179 73.786,25.500 73.571 C 25.821 73.355,26.398 72.956,26.782 72.683 C 27.546 72.141,32.144 69.833,32.459 69.833 C 32.567 69.833,32.976 69.731,33.369 69.606 C 34.855 69.132,38.008 68.695,40.167 68.663 C 40.673 68.656,44.438 69.156,45.083 69.316 C 47.105 69.819,47.637 69.975,48.087 70.202 C 48.360 70.340,48.833 70.500,49.139 70.558 C 49.444 70.616,49.885 70.814,50.119 70.999 C 50.353 71.183,50.675 71.333,50.833 71.333 C 50.992 71.333,51.301 71.465,51.521 71.625 C 51.741 71.785,52.040 71.992,52.187 72.083 C 52.980 72.580,53.495 72.971,54.201 73.617 C 54.633 74.011,55.089 74.333,55.215 74.333 C 55.341 74.333,55.989 74.915,56.655 75.625 C 58.267 77.343,58.346 77.438,59.052 78.500 C 59.387 79.004,59.887 79.739,60.164 80.132 C 60.777 81.002,61.500 82.404,61.500 82.722 C 61.500 82.850,61.647 83.142,61.828 83.371 C 62.008 83.600,62.235 84.143,62.332 84.578 C 62.429 85.012,62.620 85.581,62.755 85.842 C 62.890 86.103,63.000 86.565,63.000 86.868 C 63.000 87.171,63.085 87.681,63.188 88.001 C 63.362 88.540,63.500 89.398,63.768 91.615 C 63.826 92.091,63.799 92.691,63.709 92.949 C 63.619 93.207,63.603 93.574,63.674 93.765 C 63.791 94.081,63.736 94.462,63.326 96.167 C 63.249 96.487,63.096 97.350,62.986 98.083 C 62.876 98.817,62.685 99.534,62.561 99.678 C 62.438 99.821,62.289 100.179,62.230 100.473 C 62.172 100.767,62.060 101.046,61.983 101.094 C 61.906 101.142,61.758 101.494,61.655 101.876 C 61.552 102.259,61.325 102.753,61.151 102.975 C 60.976 103.197,60.833 103.499,60.833 103.647 C 60.833 103.796,60.534 104.329,60.168 104.833 C 59.803 105.337,59.436 105.902,59.354 106.087 C 59.272 106.272,58.896 106.732,58.519 107.109 C 58.142 107.486,57.833 107.871,57.833 107.966 C 57.833 108.225,55.924 110.111,55.373 110.396 C 55.108 110.533,54.635 110.892,54.321 111.193 C 54.007 111.494,53.627 111.818,53.476 111.912 C 53.325 112.006,52.792 112.365,52.292 112.708 C 51.791 113.052,51.273 113.333,51.140 113.333 C 51.007 113.333,50.644 113.521,50.333 113.750 C 50.023 113.979,49.612 114.167,49.421 114.167 C 49.230 114.167,48.926 114.270,48.745 114.397 C 48.231 114.757,45.945 115.352,44.167 115.589 C 42.748 115.777,42.667 115.813,42.667 116.253 L 42.667 116.667 79.167 116.667 L 115.667 116.667 115.667 116.253 C 115.667 115.813,115.585 115.777,114.167 115.589 C 112.027 115.304,110.477 114.848,109.417 114.189 C 108.958 113.904,108.396 113.587,108.167 113.485 C 107.652 113.254,107.049 112.888,106.000 112.170 C 105.862 112.076,105.300 111.708,104.750 111.352 C 103.377 110.463,99.972 106.784,99.335 105.500 C 99.130 105.087,98.829 104.600,98.667 104.417 C 98.505 104.233,98.315 103.896,98.246 103.667 C 98.177 103.438,97.981 103.071,97.810 102.853 C 97.640 102.634,97.500 102.317,97.500 102.149 C 97.500 101.871,97.149 100.974,96.588 99.818 C 96.473 99.580,96.248 98.680,96.087 97.818 C 95.926 96.956,95.734 96.129,95.660 95.980 C 94.979 94.623,95.533 87.554,96.480 85.500 C 96.670 85.087,96.828 84.619,96.830 84.458 C 96.832 84.298,97.015 83.811,97.237 83.375 C 97.458 82.940,97.810 82.210,98.017 81.754 C 98.385 80.944,98.898 80.085,99.411 79.417 C 99.552 79.233,99.910 78.708,100.207 78.250 C 100.752 77.409,104.437 73.500,104.685 73.500 C 104.847 73.500,105.985 72.767,106.333 72.439 C 106.471 72.309,107.071 71.955,107.667 71.652 C 108.263 71.349,108.862 71.011,109.000 70.901 C 109.138 70.791,109.662 70.589,110.167 70.453 C 110.671 70.317,111.346 70.112,111.667 69.998 C 111.987 69.884,112.737 69.616,113.333 69.403 C 114.122 69.121,114.961 68.986,116.417 68.906 C 117.517 68.847,118.549 68.727,118.712 68.641 C 118.874 68.555,119.099 68.544,119.212 68.617 C 119.324 68.690,120.279 68.839,121.333 68.948 C 122.388 69.057,123.587 69.230,124.000 69.333 C 124.412 69.436,125.229 69.595,125.814 69.686 C 127.342 69.926,131.739 72.136,133.001 73.299 C 133.762 74.001,133.914 74.119,134.328 74.336 C 134.790 74.577,137.333 77.093,137.333 77.308 C 137.333 77.384,137.652 77.794,138.042 78.219 C 138.837 79.086,139.500 80.080,139.500 80.406 C 139.500 80.525,139.640 80.801,139.811 81.019 C 140.223 81.546,141.000 83.095,141.000 83.389 C 141.000 83.517,141.139 83.801,141.308 84.019 C 141.477 84.238,141.665 84.792,141.725 85.250 C 141.785 85.708,141.940 86.421,142.069 86.833 C 142.581 88.467,142.667 89.302,142.667 92.627 C 142.667 96.083,142.587 96.788,141.925 99.150 C 141.786 99.646,141.566 100.171,141.435 100.317 C 141.304 100.464,141.114 100.899,141.011 101.285 C 140.908 101.670,140.761 102.025,140.684 102.073 C 140.606 102.121,140.495 102.398,140.437 102.689 C 140.379 102.980,140.050 103.629,139.707 104.130 C 139.364 104.631,138.971 105.210,138.833 105.417 C 137.563 107.326,137.100 107.914,136.007 109.007 C 135.316 109.699,134.319 110.546,133.792 110.891 C 133.265 111.236,132.833 111.584,132.833 111.664 C 132.833 111.745,132.675 111.861,132.482 111.923 C 132.288 111.984,131.857 112.278,131.523 112.577 C 131.190 112.875,130.641 113.209,130.305 113.318 C 129.969 113.428,129.610 113.618,129.507 113.741 C 129.405 113.864,129.043 114.012,128.702 114.070 C 128.362 114.128,127.746 114.312,127.333 114.480 C 125.682 115.151,124.845 115.378,123.250 115.586 C 122.333 115.706,121.565 115.811,121.542 115.819 C 121.519 115.827,121.500 116.021,121.500 116.250 L 121.500 116.667 260.750 116.667 L 400.000 116.667 400.000 87.416 L 400.000 58.166 263.375 58.237 C 89.153 58.326,100.802 58.326,84.042 58.235 L 69.667 58.156 69.667 58.570 C 69.667 58.980,70.367 59.330,71.196 59.332 C 71.350 59.333,71.581 59.438,71.709 59.567 C 71.931 59.788,73.611 60.503,74.500 60.754 C 74.729 60.819,75.067 61.004,75.250 61.165 C 75.433 61.327,75.852 61.507,76.181 61.565 C 76.510 61.624,77.297 61.935,77.931 62.257 C 78.565 62.578,79.412 62.917,79.814 63.010 C 80.217 63.103,80.733 63.326,80.962 63.506 C 81.191 63.686,81.489 63.833,81.625 63.833 C 82.048 63.833,84.494 65.547,84.829 66.079 C 85.004 66.356,85.384 66.915,85.672 67.320 C 86.292 68.190,86.914 69.517,87.085 70.333 C 87.152 70.654,87.310 71.119,87.437 71.367 C 87.761 72.001,87.754 75.211,87.427 75.714 C 87.295 75.917,87.103 76.758,87.000 77.583 C 86.897 78.408,86.745 79.271,86.662 79.500 C 86.578 79.729,86.424 80.742,86.320 81.750 C 86.215 82.758,86.026 83.786,85.898 84.033 C 85.771 84.281,85.667 84.689,85.667 84.940 C 85.667 85.509,85.339 87.303,85.154 87.750 C 85.078 87.933,84.927 88.946,84.818 90.000 C 84.709 91.054,84.518 92.065,84.393 92.245 C 84.269 92.426,84.167 92.814,84.167 93.108 C 84.167 93.665,83.917 95.059,83.664 95.917 C 83.583 96.192,83.429 97.242,83.323 98.250 C 83.127 100.102,82.737 101.253,82.239 101.444 C 81.902 101.573,79.354 101.162,78.800 100.889 C 78.552 100.767,78.144 100.667,77.893 100.667 C 77.272 100.667,75.483 100.332,75.127 100.149 C 74.968 100.067,74.653 100.000,74.427 100.000 C 73.286 100.000,72.300 99.644,72.418 99.275 C 72.481 99.078,72.668 97.979,72.834 96.833 C 73.103 94.973,73.312 93.851,73.855 91.333 C 73.944 90.921,74.156 89.646,74.326 88.500 C 74.624 86.493,74.957 84.747,75.343 83.167 C 75.444 82.754,75.634 81.554,75.766 80.500 C 75.898 79.446,76.117 78.301,76.253 77.955 C 76.389 77.609,76.500 77.104,76.500 76.832 C 76.500 76.347,76.726 75.194,76.998 74.294 C 77.190 73.660,76.708 73.092,75.778 72.858 C 75.376 72.756,74.954 72.562,74.840 72.425 C 74.726 72.288,74.359 72.124,74.025 72.062 C 73.690 71.999,72.747 71.622,71.929 71.224 C 71.110 70.826,70.277 70.500,70.076 70.500 C 69.876 70.500,69.533 70.366,69.314 70.203 C 68.933 69.918,67.540 69.324,66.667 69.074 C 66.438 69.008,66.071 68.814,65.853 68.644 C 65.634 68.473,65.291 68.333,65.090 68.333 C 64.890 68.333,64.056 68.008,63.238 67.611 C 62.420 67.214,61.507 66.841,61.209 66.782 C 60.912 66.723,60.465 66.542,60.217 66.379 C 59.753 66.075,59.136 65.822,57.845 65.404 C 57.440 65.272,56.985 65.054,56.834 64.918 C 56.684 64.782,56.304 64.621,55.989 64.560 C 54.482 64.270,50.334 61.849,50.333 61.259 C 50.333 61.162,50.164 60.880,49.958 60.632 C 49.752 60.384,49.335 59.773,49.031 59.274 C 48.721 58.765,48.318 58.324,48.114 58.269 C 47.914 58.215,37.006 58.170,23.875 58.169 L 0.000 58.167 0.000 87.417 M172.867 65.021 C 174.022 65.517,173.908 65.355,177.181 71.150 C 178.594 73.652,179.954 76.048,180.204 76.474 C 180.454 76.901,180.775 77.475,180.918 77.750 C 181.061 78.025,181.362 78.550,181.587 78.917 C 181.811 79.283,182.149 79.883,182.338 80.250 C 182.527 80.617,182.864 81.217,183.088 81.583 C 183.312 81.950,183.649 82.550,183.838 82.917 C 184.027 83.283,184.365 83.883,184.590 84.250 C 184.815 84.617,185.157 85.217,185.350 85.583 C 186.692 88.134,187.126 88.741,187.427 88.491 C 187.559 88.382,187.667 88.226,187.667 88.144 C 187.667 88.062,187.910 87.576,188.208 87.065 C 188.506 86.553,188.906 85.860,189.097 85.525 C 189.287 85.191,189.646 84.579,189.894 84.167 C 190.142 83.754,190.460 83.192,190.599 82.917 C 190.739 82.642,191.055 82.071,191.302 81.649 C 191.687 80.990,194.022 76.915,195.097 75.026 C 195.287 74.691,195.619 74.117,195.833 73.750 C 196.481 72.643,196.972 71.782,197.305 71.167 C 197.772 70.306,199.877 66.671,200.281 66.027 C 201.558 63.995,209.417 63.898,210.256 65.904 C 210.553 66.616,210.628 109.448,210.334 110.508 C 210.068 111.467,209.841 111.635,208.417 111.929 C 206.053 112.417,203.282 112.094,202.402 111.228 L 201.917 110.750 201.830 95.333 C 201.783 86.854,201.727 79.898,201.705 79.875 C 201.568 79.728,201.357 79.905,201.111 80.375 C 200.954 80.673,200.659 81.197,200.455 81.541 C 199.778 82.677,195.429 90.331,194.750 91.580 C 194.383 92.254,194.020 92.868,193.944 92.945 C 193.867 93.021,193.698 93.308,193.567 93.583 C 193.437 93.858,193.147 94.383,192.923 94.750 C 192.698 95.117,192.357 95.717,192.165 96.083 C 191.973 96.450,191.599 97.125,191.334 97.583 C 191.069 98.042,190.766 98.567,190.661 98.750 C 189.961 99.964,185.841 100.518,184.554 99.570 C 184.155 99.276,182.197 96.200,181.682 95.056 C 181.525 94.709,180.818 93.469,180.049 92.193 C 179.846 91.858,179.527 91.283,179.338 90.917 C 179.149 90.550,178.778 89.875,178.512 89.417 C 178.246 88.958,177.907 88.358,177.758 88.083 C 177.609 87.808,177.358 87.358,177.201 87.083 C 177.044 86.808,176.706 86.208,176.451 85.750 C 176.197 85.292,175.807 84.617,175.585 84.250 C 175.364 83.883,175.088 83.396,174.973 83.167 C 174.858 82.938,174.476 82.309,174.124 81.769 C 173.773 81.229,173.371 80.517,173.232 80.186 C 172.534 78.528,172.500 79.233,172.500 95.340 L 172.500 110.450 172.019 111.114 C 171.554 111.756,171.494 111.784,170.144 111.972 C 168.033 112.267,167.429 112.240,165.046 111.740 C 164.843 111.698,164.486 111.384,164.255 111.043 L 163.833 110.423 163.833 88.391 C 163.833 63.520,163.711 65.667,165.164 65.017 C 166.261 64.526,166.336 64.518,169.250 64.568 C 171.649 64.609,172.012 64.655,172.867 65.021 M319.844 68.818 C 320.113 69.126,320.347 69.387,320.363 69.398 C 320.380 69.408,320.436 71.029,320.488 73.000 L 320.583 76.583 322.850 76.667 C 325.941 76.780,326.333 77.166,326.333 80.086 C 326.333 83.069,326.063 83.333,323.020 83.333 C 321.593 83.333,320.835 83.399,320.700 83.533 C 320.292 83.941,320.426 103.758,320.842 104.430 C 321.480 105.464,322.151 105.728,323.855 105.617 C 325.985 105.479,326.202 105.588,326.721 107.051 C 328.153 111.091,326.785 112.427,321.364 112.286 C 316.888 112.169,313.537 110.289,312.899 107.536 C 312.841 107.287,312.692 106.920,312.568 106.721 C 312.041 105.876,311.961 104.383,311.891 94.167 C 311.810 82.401,311.952 83.333,310.241 83.333 C 309.541 83.333,309.252 83.248,308.884 82.931 L 308.417 82.528 308.417 80.085 L 308.417 77.642 309.000 77.159 C 309.487 76.755,309.736 76.675,310.510 76.671 C 311.883 76.665,311.958 76.559,312.177 74.333 C 312.281 73.279,312.399 72.362,312.440 72.296 C 312.481 72.229,312.621 71.521,312.750 70.722 C 313.119 68.442,313.599 68.163,317.052 68.220 L 319.355 68.258 319.844 68.818 M234.250 76.466 C 236.977 76.722,239.076 77.500,241.167 79.031 C 242.564 80.054,243.306 81.076,244.231 83.250 L 244.727 84.417 244.826 95.250 C 244.880 101.208,244.982 106.176,245.053 106.288 C 245.346 106.754,245.659 110.055,245.451 110.484 C 244.911 111.599,239.873 112.480,238.572 111.687 C 238.093 111.395,237.163 109.418,237.166 108.697 C 237.169 107.854,236.214 107.754,235.717 108.546 C 235.337 109.151,233.079 110.790,231.833 111.365 C 228.843 112.746,223.479 112.664,220.562 111.192 C 214.388 108.078,214.412 97.558,220.603 93.584 C 221.142 93.238,221.787 92.815,222.035 92.644 C 222.283 92.473,222.563 92.333,222.657 92.333 C 222.750 92.333,223.297 92.154,223.872 91.934 C 225.502 91.312,227.157 90.865,228.250 90.751 C 228.800 90.694,229.850 90.539,230.583 90.406 C 231.317 90.274,232.892 90.110,234.083 90.041 L 236.250 89.917 236.297 87.985 L 236.343 86.053 235.797 85.240 C 235.104 84.211,234.169 83.569,233.000 83.320 C 231.653 83.034,226.977 83.202,226.000 83.571 C 225.588 83.727,224.911 83.951,224.496 84.069 C 224.082 84.187,223.594 84.366,223.413 84.467 C 221.559 85.503,220.861 85.531,219.959 84.605 C 218.190 82.790,217.610 80.576,218.613 79.468 C 219.064 78.969,220.288 78.183,220.797 78.065 C 221.046 78.008,221.401 77.867,221.586 77.752 C 221.902 77.556,223.933 76.976,225.417 76.657 C 225.783 76.579,226.646 76.506,227.333 76.496 C 228.021 76.485,228.733 76.409,228.917 76.326 C 229.282 76.161,231.651 76.223,234.250 76.466 M269.263 76.464 C 270.095 76.554,270.995 76.740,271.263 76.877 C 271.531 77.014,272.012 77.181,272.333 77.248 C 272.654 77.316,273.029 77.467,273.167 77.585 C 273.304 77.703,273.701 77.917,274.048 78.061 C 276.304 78.992,279.080 83.194,280.010 87.083 C 280.596 89.534,280.659 89.997,280.705 92.129 L 280.750 94.250 279.860 95.439 C 278.531 97.212,279.412 97.077,268.833 97.127 C 257.658 97.179,258.750 96.839,259.585 100.000 C 261.110 105.767,267.498 107.390,274.933 103.899 C 276.646 103.095,277.330 103.348,278.585 105.250 C 280.524 108.189,279.479 109.844,274.750 111.325 C 270.468 112.665,262.860 112.723,260.367 111.434 C 260.083 111.287,259.758 111.167,259.646 111.167 C 259.348 111.167,257.366 110.177,256.518 109.605 C 254.496 108.241,251.895 104.571,251.412 102.402 C 251.353 102.135,251.166 101.467,250.997 100.917 C 250.179 98.256,250.168 89.388,250.981 87.870 C 251.089 87.667,251.257 87.070,251.355 86.542 C 251.452 86.015,251.630 85.396,251.750 85.167 C 251.870 84.938,252.182 84.306,252.443 83.762 C 253.890 80.746,257.004 78.057,260.000 77.235 C 260.412 77.122,261.050 76.913,261.417 76.772 C 261.783 76.630,262.496 76.507,263.000 76.498 C 263.504 76.488,264.217 76.416,264.583 76.337 C 265.335 76.175,267.025 76.221,269.263 76.464 M298.942 76.409 C 305.389 77.259,306.813 79.182,304.122 83.402 C 303.487 84.398,302.182 84.481,300.803 83.613 C 300.591 83.479,300.042 83.320,299.583 83.259 C 299.125 83.198,298.337 83.066,297.833 82.966 C 293.967 82.199,290.987 85.640,293.301 88.201 C 293.846 88.804,295.464 90.000,295.736 90.000 C 295.801 90.000,296.243 90.175,296.719 90.389 C 298.213 91.061,299.235 91.479,299.667 91.594 C 299.896 91.656,300.196 91.801,300.333 91.917 C 300.471 92.032,300.769 92.184,300.997 92.254 C 301.412 92.381,301.553 92.466,303.080 93.509 C 306.169 95.619,307.801 100.379,306.620 103.833 C 306.479 104.246,306.310 104.846,306.245 105.167 C 305.698 107.853,301.609 111.466,298.619 111.905 C 298.180 111.970,297.563 112.130,297.249 112.261 C 295.772 112.878,289.261 112.331,287.049 111.403 C 282.767 109.607,282.147 108.213,284.274 105.167 C 285.348 103.629,285.995 103.301,286.958 103.806 C 288.505 104.617,289.292 104.966,289.833 105.082 C 290.154 105.151,290.631 105.316,290.893 105.450 C 291.233 105.624,291.924 105.691,293.323 105.685 C 296.150 105.673,297.472 104.996,298.057 103.262 C 299.010 100.433,297.316 98.636,292.083 96.924 C 291.453 96.718,290.216 96.154,289.667 95.823 C 289.529 95.740,289.177 95.564,288.885 95.432 C 287.526 94.819,285.707 93.148,284.951 91.816 C 283.694 89.605,283.569 83.865,284.744 82.333 C 284.849 82.196,285.020 81.884,285.124 81.640 C 285.631 80.448,288.000 78.000,288.646 78.000 C 288.724 78.000,288.967 77.866,289.186 77.703 C 290.886 76.433,294.994 75.888,298.942 76.409 M347.997 76.410 C 348.924 76.609,349.178 76.749,349.789 77.394 L 350.500 78.147 350.494 79.949 C 350.481 83.530,349.677 84.525,347.166 84.065 C 344.360 83.552,342.983 84.024,340.875 86.219 L 339.833 87.304 339.833 98.974 L 339.833 110.643 339.292 111.213 C 338.536 112.009,335.526 112.451,333.833 112.014 C 333.512 111.932,332.969 111.816,332.625 111.758 C 331.361 111.543,331.428 112.305,331.328 97.000 C 331.248 84.835,331.206 83.179,330.920 81.145 C 330.481 78.016,330.829 77.580,334.083 77.184 C 337.221 76.802,338.113 77.062,338.492 78.472 C 338.672 79.139,339.452 80.833,339.579 80.833 C 339.623 80.833,339.766 80.624,339.899 80.368 C 340.725 78.771,343.424 76.813,345.333 76.425 C 346.743 76.139,346.735 76.139,347.997 76.410 M369.825 76.343 C 373.389 76.784,375.139 77.365,377.250 78.806 C 378.726 79.813,380.963 82.253,381.249 83.167 C 381.321 83.396,381.519 83.762,381.690 83.981 C 381.860 84.199,382.000 84.499,382.001 84.647 C 382.002 84.796,382.125 85.142,382.275 85.417 C 382.426 85.692,382.682 86.479,382.844 87.167 C 383.007 87.854,383.234 88.754,383.349 89.167 C 383.804 90.805,383.642 98.477,383.107 100.583 C 382.044 104.775,380.517 107.341,377.777 109.542 C 377.234 109.977,376.698 110.333,376.585 110.333 C 376.471 110.333,376.188 110.483,375.955 110.667 C 375.721 110.850,375.429 111.000,375.305 111.000 C 375.180 111.000,374.788 111.156,374.432 111.346 C 372.468 112.399,367.079 112.678,363.083 111.935 C 359.432 111.255,355.654 108.569,354.146 105.582 C 354.008 105.308,353.810 104.933,353.708 104.750 C 353.339 104.094,352.667 102.455,352.667 102.214 C 352.667 102.079,352.520 101.469,352.340 100.859 C 351.515 98.055,351.462 90.320,352.252 88.083 C 352.381 87.717,352.569 87.042,352.668 86.583 C 353.177 84.236,355.459 80.624,357.167 79.461 C 357.396 79.305,357.883 78.967,358.250 78.709 C 359.761 77.647,362.858 76.510,364.302 76.488 C 364.732 76.481,365.421 76.415,365.833 76.342 C 366.942 76.144,368.223 76.145,369.825 76.343 M38.417 79.502 C 36.772 79.592,34.874 80.148,34.167 80.748 C 34.029 80.864,33.654 81.092,33.333 81.253 C 33.012 81.414,32.508 81.742,32.213 81.981 C 31.917 82.221,31.340 82.679,30.930 83.000 C 30.521 83.321,30.140 83.711,30.084 83.868 C 30.028 84.024,29.686 84.510,29.324 84.948 C 28.963 85.386,28.665 85.820,28.664 85.914 C 28.662 86.007,28.443 86.404,28.178 86.796 C 27.912 87.188,27.641 87.824,27.576 88.209 C 27.511 88.594,27.345 89.082,27.206 89.293 C 26.724 90.029,26.859 94.842,27.398 96.121 C 27.637 96.691,27.833 97.297,27.833 97.469 C 27.833 97.642,27.979 97.950,28.156 98.155 C 28.334 98.360,28.526 98.739,28.583 98.999 C 28.944 100.640,34.109 104.654,36.399 105.072 C 36.757 105.138,37.219 105.302,37.427 105.439 C 37.724 105.634,38.241 105.673,39.861 105.622 C 43.317 105.515,45.455 104.829,47.427 103.192 C 47.525 103.111,47.782 102.950,47.998 102.834 C 48.581 102.523,50.027 101.025,50.574 100.167 C 50.837 99.754,51.180 99.228,51.336 98.997 C 51.492 98.766,51.678 98.391,51.749 98.163 C 51.821 97.936,52.014 97.577,52.179 97.366 C 52.343 97.155,52.530 96.555,52.594 96.033 C 52.657 95.511,52.812 94.881,52.938 94.633 C 53.314 93.893,53.247 90.714,52.837 89.810 C 52.656 89.410,52.506 88.948,52.504 88.783 C 52.500 88.467,51.996 87.211,51.589 86.500 C 51.457 86.271,51.189 85.792,50.993 85.436 C 50.403 84.364,47.109 81.224,46.444 81.099 C 46.133 81.041,45.745 80.845,45.580 80.663 C 45.416 80.482,45.086 80.333,44.847 80.333 C 44.607 80.333,44.119 80.177,43.762 79.985 C 43.180 79.673,42.652 79.582,40.667 79.450 C 40.346 79.428,39.333 79.452,38.417 79.502 M117.417 79.505 C 116.658 79.576,115.760 79.779,115.333 79.978 C 114.921 80.169,114.433 80.328,114.250 80.330 C 113.213 80.341,109.542 83.118,108.771 84.474 C 108.668 84.655,108.342 85.149,108.046 85.570 C 107.548 86.281,107.155 87.163,106.408 89.250 C 106.068 90.198,105.874 94.003,106.136 94.576 C 106.222 94.763,106.382 95.400,106.493 95.990 C 106.603 96.581,106.837 97.247,107.013 97.471 C 107.189 97.695,107.333 97.991,107.333 98.129 C 107.333 98.535,109.114 101.091,109.757 101.608 C 110.082 101.869,110.709 102.402,111.150 102.792 C 111.591 103.181,112.026 103.500,112.116 103.500 C 112.207 103.500,112.416 103.649,112.580 103.830 C 112.745 104.012,113.150 104.206,113.481 104.262 C 113.812 104.319,114.285 104.507,114.532 104.680 C 114.779 104.854,115.342 105.079,115.782 105.179 C 116.223 105.280,116.814 105.431,117.095 105.515 C 117.755 105.711,120.369 105.712,120.867 105.516 C 121.078 105.434,121.785 105.246,122.438 105.100 C 123.092 104.954,123.842 104.722,124.105 104.585 C 124.368 104.448,124.703 104.335,124.849 104.334 C 124.995 104.334,125.249 104.185,125.413 104.004 C 125.577 103.823,125.869 103.625,126.064 103.564 C 126.722 103.357,129.000 101.438,129.000 101.090 C 129.000 100.982,129.337 100.541,129.750 100.110 C 130.162 99.680,130.500 99.193,130.500 99.029 C 130.500 98.866,130.688 98.477,130.917 98.167 C 131.146 97.856,131.333 97.464,131.333 97.296 C 131.333 97.127,131.458 96.710,131.611 96.370 C 132.264 94.912,132.361 89.905,131.751 89.167 C 131.638 89.029,131.497 88.546,131.438 88.093 C 131.379 87.640,131.189 87.115,131.015 86.926 C 130.841 86.738,130.589 86.321,130.456 86.000 C 129.529 83.772,126.021 80.880,123.583 80.333 C 123.159 80.238,122.610 80.019,122.364 79.847 C 121.829 79.471,119.504 79.311,117.417 79.505 M264.078 83.322 C 262.779 83.633,261.126 85.037,260.531 86.333 C 260.384 86.654,260.178 87.029,260.074 87.167 C 259.689 87.676,259.101 90.637,259.331 90.913 C 259.655 91.305,272.082 91.295,272.232 90.903 C 272.844 89.308,271.462 85.473,269.782 84.104 C 268.716 83.235,265.996 82.862,264.078 83.322 M365.422 83.280 C 365.150 83.326,364.726 83.506,364.480 83.681 C 364.233 83.857,363.962 84.000,363.877 84.000 C 363.283 84.000,361.000 87.274,361.000 88.126 C 361.000 88.292,360.839 88.876,360.642 89.422 C 359.687 92.072,360.233 99.281,361.595 102.000 C 363.846 106.495,370.392 107.001,373.164 102.895 C 373.440 102.485,373.669 102.097,373.672 102.033 C 373.675 101.969,373.862 101.542,374.087 101.083 C 374.312 100.625,374.498 100.009,374.498 99.714 C 374.499 99.419,374.623 98.819,374.774 98.381 C 374.985 97.769,375.053 96.905,375.066 94.667 C 375.118 85.842,372.020 82.184,365.422 83.280 M232.750 96.171 C 231.925 96.239,230.843 96.416,230.345 96.564 C 229.847 96.712,229.294 96.833,229.116 96.833 C 226.233 96.833,223.684 100.700,224.851 103.301 C 225.958 105.765,230.235 106.550,232.538 104.711 C 232.655 104.618,232.975 104.427,233.250 104.287 C 233.826 103.993,235.154 102.771,235.854 101.891 L 236.333 101.287 236.333 98.745 C 236.333 95.636,236.632 95.851,232.750 96.171 M0.000 137.917 L 0.000 144.833 200.000 144.833 L 400.000 144.833 400.000 137.917 L 400.000 131.000 200.000 131.000 L 0.000 131.000 0.000 137.917 "
    stroke="none" fill="#3cc4cc" fill-rule="evenodd"></path>
</svg>